M48
; DRILL file {KiCad (6.0.1)} date Wed Jun 29 12:54:28 2022
; FORMAT={-:-/ absolute / inch / decimal}
; #@! TF.CreationDate,2022-06-29T12:54:28+01:00
; #@! TF.GenerationSoftware,Kicad,Pcbnew,(6.0.1)
; #@! TF.FileFunction,Plated,1,2,PTH
FMAT,2
INCH
; #@! TA.AperFunction,Plated,PTH,ViaDrill
T1C0.0157
; #@! TA.AperFunction,Plated,PTH,ComponentDrill
T2C0.0276
; #@! TA.AperFunction,Plated,PTH,ComponentDrill
T3C0.0300
; #@! TA.AperFunction,Plated,PTH,ComponentDrill
T4C0.0354
%
G90
G05
T1
X3.25Y-2.7
X3.25Y-3.05
X3.35Y-3.1
X3.7Y-2.55
X3.7Y-3.1
X3.75Y-3.15
X3.8Y-3.2
X3.85Y-2.4
X3.85Y-2.45
X3.85Y-2.55
X4.05Y-3.15
X4.05Y-3.2
X4.05Y-3.35
X4.05Y-3.45
X4.1Y-2.7
X4.15Y-3.15
X4.15Y-3.2
X4.3Y-2.45
X4.3Y-2.65
X4.35Y-3.35
X4.35Y-3.45
X4.35Y-3.85
X4.35Y-3.95
X4.55Y-3.2
X4.65Y-3.2
X4.85Y-3.35
X4.85Y-3.45
X4.85Y-3.85
X4.85Y-3.95
X4.9Y-4.35
X4.9Y-4.45
X5.55Y-2.5
X5.55Y-3.05
X5.55Y-3.1
X5.55Y-3.15
X5.55Y-3.2
X5.6Y-2.55
X5.65Y-3.05
X5.65Y-3.1
X5.65Y-3.15
X5.65Y-3.2
X5.85Y-3.35
X5.85Y-3.45
X5.85Y-3.85
X5.85Y-3.95
X6.05Y-3.1
X6.05Y-3.15
X6.05Y-3.2
X6.05Y-3.35
X6.05Y-3.45
X6.05Y-3.85
X6.05Y-3.95
X6.15Y-3.1
X6.15Y-3.15
X6.15Y-3.2
X6.35Y-3.35
X6.35Y-3.45
X6.55Y-3.15
X6.55Y-3.2
X6.65Y-3.15
X6.65Y-3.2
X7.05Y-3.2
X7.15Y-3.2
T2
X3.65Y-5.4
X3.95Y-5.4
T3
X3.15Y-2.3
X3.15Y-2.9
X3.25Y-2.3
X3.25Y-2.9
X3.35Y-2.3
X3.35Y-2.9
X3.45Y-2.3
X3.45Y-2.9
X3.55Y-2.3
X3.55Y-2.9
X3.65Y-2.3
X3.65Y-2.9
X3.75Y-2.3
X3.75Y-2.9
X3.85Y-2.3
X3.85Y-2.9
X3.95Y-2.3
X3.95Y-2.9
X4.05Y-2.3
X4.05Y-2.9
X4.15Y-2.3
X4.15Y-2.9
X4.25Y-2.3
X4.25Y-2.9
T4
X2.95Y-3.3
X2.95Y-3.5
X2.95Y-3.8
X2.95Y-4.0
X3.2Y-4.3
X3.2Y-4.5
X3.2Y-4.8
X3.2Y-5.0
X3.25Y-3.3
X3.25Y-3.5
X3.25Y-3.8
X3.25Y-4.0
X3.35Y-5.4
X3.45Y-3.3
X3.45Y-3.5
X3.45Y-3.8
X3.45Y-4.0
X3.45Y-5.4
X3.5Y-4.3
X3.5Y-4.5
X3.5Y-4.8
X3.5Y-5.0
X3.7Y-4.3
X3.7Y-4.5
X3.7Y-4.8
X3.7Y-5.0
X3.75Y-3.3
X3.75Y-3.5
X3.75Y-3.8
X3.75Y-4.0
X3.95Y-3.3
X3.95Y-3.5
X3.95Y-3.8
X3.95Y-4.0
X4.0Y-4.3
X4.0Y-4.5
X4.0Y-4.8
X4.0Y-5.0
X4.2Y-4.3
X4.2Y-4.5
X4.2Y-4.8
X4.2Y-5.0
X4.25Y-3.3
X4.25Y-3.5
X4.25Y-3.8
X4.25Y-4.0
X4.45Y-3.3
X4.45Y-3.5
X4.45Y-3.8
X4.45Y-4.0
X4.5Y-4.3
X4.5Y-4.5
X4.5Y-4.8
X4.5Y-5.0
X4.7Y-4.3
X4.7Y-4.5
X4.7Y-4.8
X4.7Y-5.0
X4.75Y-3.3
X4.75Y-3.5
X4.75Y-3.8
X4.75Y-4.0
X4.95Y-3.3
X4.95Y-3.5
X4.95Y-3.8
X4.95Y-4.0
X5.0Y-4.3
X5.0Y-4.5
X5.0Y-4.8
X5.0Y-5.0
X5.2Y-4.3
X5.2Y-4.5
X5.2Y-4.8
X5.2Y-5.0
X5.2Y-5.3
X5.2Y-5.5
X5.25Y-3.3
X5.25Y-3.5
X5.25Y-3.8
X5.25Y-4.0
X5.45Y-3.3
X5.45Y-3.5
X5.45Y-3.8
X5.45Y-4.0
X5.5Y-4.3
X5.5Y-4.5
X5.5Y-4.8
X5.5Y-5.0
X5.5Y-5.3
X5.5Y-5.5
X5.6866Y-4.8
X5.6866Y-5.0
X5.7Y-2.5
X5.7Y-2.7
X5.7Y-4.3
X5.7Y-4.5
X5.75Y-3.3
X5.75Y-3.5
X5.75Y-3.8
X5.75Y-4.0
X5.95Y-3.3
X5.95Y-3.5
X5.95Y-3.8
X5.95Y-4.0
X5.9866Y-4.8
X5.9866Y-5.0
X6.0Y-2.5
X6.0Y-2.7
X6.0Y-4.3
X6.0Y-4.5
X6.2Y-2.5
X6.2Y-2.7
X6.2Y-4.3
X6.2Y-4.5
X6.2Y-4.8
X6.2Y-5.0
X6.25Y-3.3
X6.25Y-3.5
X6.25Y-3.8
X6.25Y-4.0
X6.45Y-3.3
X6.45Y-3.5
X6.45Y-3.8
X6.45Y-4.0
X6.5Y-2.5
X6.5Y-2.7
X6.5Y-4.3
X6.5Y-4.5
X6.5Y-4.8
X6.5Y-5.0
X6.7Y-4.3
X6.7Y-4.5
X6.7Y-4.8
X6.7Y-5.0
X6.75Y-3.3
X6.75Y-3.5
X6.75Y-3.8
X6.75Y-4.0
X6.95Y-3.3
X6.95Y-3.5
X6.95Y-3.8
X6.95Y-4.0
X7.0Y-4.3
X7.0Y-4.5
X7.0Y-4.8
X7.0Y-5.0
X7.1213Y-2.2457
X7.2Y-2.2457
X7.2Y-4.3
X7.2Y-4.5
X7.2Y-4.8
X7.2Y-5.0
X7.2Y-5.3
X7.2Y-5.5
X7.25Y-3.3
X7.25Y-3.5
X7.25Y-3.8
X7.25Y-4.0
X7.2787Y-2.2457
X7.45Y-3.3
X7.45Y-3.5
X7.45Y-3.8
X7.45Y-4.0
X7.5Y-4.3
X7.5Y-4.5
X7.5Y-4.8
X7.5Y-5.0
X7.5Y-5.3
X7.5Y-5.5
X7.5543Y-2.5213
X7.5543Y-2.6
X7.5543Y-2.6787
X7.75Y-3.3
X7.75Y-3.5
X7.75Y-3.8
X7.75Y-4.0
T0
M30
