%TF.GenerationSoftware,KiCad,Pcbnew,(6.0.1)*%
%TF.CreationDate,2022-06-29T12:54:24+01:00*%
%TF.ProjectId,Keyboard_mouse,4b657962-6f61-4726-945f-6d6f7573652e,rev?*%
%TF.SameCoordinates,Original*%
%TF.FileFunction,Soldermask,Bot*%
%TF.FilePolarity,Negative*%
%FSLAX46Y46*%
G04 Gerber Fmt 4.6, Leading zero omitted, Abs format (unit mm)*
G04 Created by KiCad (PCBNEW (6.0.1)) date 2022-06-29 12:54:24*
%MOMM*%
%LPD*%
G01*
G04 APERTURE LIST*
%ADD10R,1.800000X1.800000*%
%ADD11C,1.800000*%
%ADD12C,1.400000*%
%ADD13O,1.400000X1.400000*%
%ADD14C,1.500000*%
%ADD15C,1.524000*%
%ADD16O,1.500000X3.000000*%
%ADD17O,3.000000X1.500000*%
G04 APERTURE END LIST*
D10*
%TO.C,D1*%
X87630000Y-137160000D03*
D11*
X85090000Y-137160000D03*
%TD*%
D12*
%TO.C,R1*%
X92710000Y-137160000D03*
D13*
X100330000Y-137160000D03*
%TD*%
D14*
%TO.C,SW26*%
X151130000Y-88900000D03*
X158750000Y-83820000D03*
X158750000Y-88900000D03*
X151130000Y-83820000D03*
%TD*%
%TO.C,SW22*%
X138430000Y-88900000D03*
X146050000Y-83820000D03*
X146050000Y-88900000D03*
X138430000Y-83820000D03*
%TD*%
%TO.C,SW23*%
X138430000Y-101600000D03*
X146050000Y-96520000D03*
X146050000Y-101600000D03*
X138430000Y-96520000D03*
%TD*%
%TO.C,SW3*%
X81280000Y-114300000D03*
X88900000Y-109220000D03*
X88900000Y-114300000D03*
X81280000Y-109220000D03*
%TD*%
%TO.C,SW42*%
X157480000Y-68580000D03*
X165100000Y-63500000D03*
X165100000Y-68580000D03*
X157480000Y-63500000D03*
%TD*%
%TO.C,SW27*%
X151130000Y-101600000D03*
X158750000Y-96520000D03*
X158750000Y-101600000D03*
X151130000Y-96520000D03*
%TD*%
%TO.C,SW39*%
X189230000Y-88900000D03*
X196850000Y-83820000D03*
X196850000Y-88900000D03*
X189230000Y-83820000D03*
%TD*%
%TO.C,SW13*%
X113030000Y-88900000D03*
X120650000Y-83820000D03*
X120650000Y-88900000D03*
X113030000Y-83820000D03*
%TD*%
%TO.C,SW10*%
X100330000Y-101600000D03*
X107950000Y-96520000D03*
X107950000Y-101600000D03*
X100330000Y-96520000D03*
%TD*%
%TO.C,SW6*%
X87630000Y-101600000D03*
X95250000Y-96520000D03*
X95250000Y-101600000D03*
X87630000Y-96520000D03*
%TD*%
%TO.C,SW32*%
X170180000Y-114300000D03*
X177800000Y-109220000D03*
X177800000Y-114300000D03*
X170180000Y-109220000D03*
%TD*%
%TO.C,SW24*%
X144780000Y-114300000D03*
X152400000Y-109220000D03*
X152400000Y-114300000D03*
X144780000Y-109220000D03*
%TD*%
%TO.C,SW15*%
X119380000Y-114300000D03*
X127000000Y-109220000D03*
X127000000Y-114300000D03*
X119380000Y-109220000D03*
%TD*%
%TO.C,SW4*%
X81280000Y-127000000D03*
X88900000Y-121920000D03*
X88900000Y-127000000D03*
X81280000Y-121920000D03*
%TD*%
%TO.C,SW16*%
X119380000Y-127000000D03*
X127000000Y-121920000D03*
X127000000Y-127000000D03*
X119380000Y-121920000D03*
%TD*%
%TO.C,SW41*%
X144780000Y-68580000D03*
X152400000Y-63500000D03*
X152400000Y-68580000D03*
X144780000Y-63500000D03*
%TD*%
%TO.C,SW28*%
X157480000Y-114300000D03*
X165100000Y-109220000D03*
X165100000Y-114300000D03*
X157480000Y-109220000D03*
%TD*%
D15*
%TO.C,A1*%
X82550000Y-73660000D03*
X80010000Y-73660000D03*
X90170000Y-73660000D03*
X92710000Y-73660000D03*
X95250000Y-73660000D03*
X97790000Y-73660000D03*
X100330000Y-73660000D03*
X102870000Y-73660000D03*
X105410000Y-73660000D03*
X107950000Y-73660000D03*
X107950000Y-58420000D03*
X85090000Y-73660000D03*
X87630000Y-73660000D03*
X102870000Y-58420000D03*
X100330000Y-58420000D03*
X105410000Y-58420000D03*
X97790000Y-58420000D03*
X95250000Y-58420000D03*
X92710000Y-58420000D03*
X90170000Y-58420000D03*
X87630000Y-58420000D03*
X85090000Y-58420000D03*
X82550000Y-58420000D03*
X80010000Y-58420000D03*
%TD*%
D14*
%TO.C,SW14*%
X113030000Y-101600000D03*
X120650000Y-96520000D03*
X120650000Y-101600000D03*
X113030000Y-96520000D03*
%TD*%
%TO.C,SW12*%
X106680000Y-127000000D03*
X114300000Y-121920000D03*
X114300000Y-127000000D03*
X106680000Y-121920000D03*
%TD*%
%TO.C,SW40*%
X189230000Y-101600000D03*
X196850000Y-96520000D03*
X196850000Y-101600000D03*
X189230000Y-96520000D03*
%TD*%
D16*
%TO.C,VR1*%
X180880000Y-57040000D03*
X182880000Y-57040000D03*
X184880000Y-57040000D03*
D17*
X191880000Y-64040000D03*
X191880000Y-66040000D03*
X191880000Y-68040000D03*
%TD*%
D14*
%TO.C,SW31*%
X163830000Y-101600000D03*
X171450000Y-96520000D03*
X171450000Y-101600000D03*
X163830000Y-96520000D03*
%TD*%
%TO.C,SW9*%
X100330000Y-88900000D03*
X107950000Y-83820000D03*
X107950000Y-88900000D03*
X100330000Y-83820000D03*
%TD*%
%TO.C,SW38*%
X182880000Y-139700000D03*
X190500000Y-134620000D03*
X190500000Y-139700000D03*
X182880000Y-134620000D03*
%TD*%
%TO.C,SW36*%
X182880000Y-114300000D03*
X190500000Y-109220000D03*
X190500000Y-114300000D03*
X182880000Y-109220000D03*
%TD*%
%TO.C,SW17*%
X125730000Y-88900000D03*
X133350000Y-83820000D03*
X133350000Y-88900000D03*
X125730000Y-83820000D03*
%TD*%
%TO.C,SW8*%
X93980000Y-127000000D03*
X101600000Y-121920000D03*
X101600000Y-127000000D03*
X93980000Y-121920000D03*
%TD*%
%TO.C,SW20*%
X132080000Y-127000000D03*
X139700000Y-121920000D03*
X139700000Y-127000000D03*
X132080000Y-121920000D03*
%TD*%
%TO.C,SW2*%
X74930000Y-101600000D03*
X82550000Y-96520000D03*
X82550000Y-101600000D03*
X74930000Y-96520000D03*
%TD*%
%TO.C,SW33*%
X170180000Y-127000000D03*
X177800000Y-121920000D03*
X177800000Y-127000000D03*
X170180000Y-121920000D03*
%TD*%
%TO.C,SW7*%
X93980000Y-114300000D03*
X101600000Y-109220000D03*
X101600000Y-114300000D03*
X93980000Y-109220000D03*
%TD*%
%TO.C,SW18*%
X125730000Y-101600000D03*
X133350000Y-96520000D03*
X133350000Y-101600000D03*
X125730000Y-96520000D03*
%TD*%
%TO.C,SW1*%
X74930000Y-88900000D03*
X82550000Y-83820000D03*
X82550000Y-88900000D03*
X74930000Y-83820000D03*
%TD*%
%TO.C,SW29*%
X157480000Y-127000000D03*
X165100000Y-121920000D03*
X165100000Y-127000000D03*
X157480000Y-121920000D03*
%TD*%
%TO.C,SW25*%
X144440000Y-127000000D03*
X152060000Y-121920000D03*
X152060000Y-127000000D03*
X144440000Y-121920000D03*
%TD*%
%TO.C,SW19*%
X132080000Y-114300000D03*
X139700000Y-109220000D03*
X139700000Y-114300000D03*
X132080000Y-109220000D03*
%TD*%
%TO.C,SW21*%
X132080000Y-139700000D03*
X139700000Y-134620000D03*
X139700000Y-139700000D03*
X132080000Y-134620000D03*
%TD*%
%TO.C,SW35*%
X176530000Y-101600000D03*
X184150000Y-96520000D03*
X184150000Y-101600000D03*
X176530000Y-96520000D03*
%TD*%
%TO.C,SW37*%
X182880000Y-127000000D03*
X190500000Y-121920000D03*
X190500000Y-127000000D03*
X182880000Y-121920000D03*
%TD*%
%TO.C,SW11*%
X106680000Y-114300000D03*
X114300000Y-109220000D03*
X114300000Y-114300000D03*
X106680000Y-109220000D03*
%TD*%
%TO.C,SW30*%
X163830000Y-88900000D03*
X171450000Y-83820000D03*
X171450000Y-88900000D03*
X163830000Y-83820000D03*
%TD*%
%TO.C,SW5*%
X87630000Y-88900000D03*
X95250000Y-83820000D03*
X95250000Y-88900000D03*
X87630000Y-83820000D03*
%TD*%
%TO.C,SW34*%
X176530000Y-88900000D03*
X184150000Y-83820000D03*
X184150000Y-88900000D03*
X176530000Y-83820000D03*
%TD*%
M02*
