%TF.GenerationSoftware,KiCad,Pcbnew,(6.0.1)*%
%TF.CreationDate,2022-06-29T12:54:24+01:00*%
%TF.ProjectId,Keyboard_mouse,4b657962-6f61-4726-945f-6d6f7573652e,rev?*%
%TF.SameCoordinates,Original*%
%TF.FileFunction,Legend,Top*%
%TF.FilePolarity,Positive*%
%FSLAX46Y46*%
G04 Gerber Fmt 4.6, Leading zero omitted, Abs format (unit mm)*
G04 Created by KiCad (PCBNEW (6.0.1)) date 2022-06-29 12:54:24*
%MOMM*%
%LPD*%
G01*
G04 APERTURE LIST*
%ADD10C,0.381000*%
%ADD11C,0.150000*%
%ADD12C,0.254000*%
G04 APERTURE END LIST*
D10*
X160419142Y-120758857D02*
X160419142Y-117710857D01*
X162160857Y-120758857D01*
X162160857Y-117710857D01*
X109474000Y-117710857D02*
X111506000Y-120758857D01*
X111506000Y-117710857D02*
X109474000Y-120758857D01*
X180049714Y-92310857D02*
X180630285Y-92310857D01*
X180920571Y-92456000D01*
X181210857Y-92746285D01*
X181356000Y-93326857D01*
X181356000Y-94342857D01*
X181210857Y-94923428D01*
X180920571Y-95213714D01*
X180630285Y-95358857D01*
X180049714Y-95358857D01*
X179759428Y-95213714D01*
X179469142Y-94923428D01*
X179324000Y-94342857D01*
X179324000Y-93326857D01*
X179469142Y-92746285D01*
X179759428Y-92456000D01*
X180049714Y-92310857D01*
D11*
X170966190Y-94826666D02*
X171087142Y-94826666D01*
X171329047Y-94705714D01*
X171450000Y-94463809D01*
X171450000Y-93254285D01*
X171570952Y-93012380D01*
X171812857Y-92891428D01*
X171570952Y-92770476D01*
X171450000Y-92528571D01*
X171450000Y-91319047D01*
X171329047Y-91077142D01*
X171087142Y-90956190D01*
X170966190Y-90956190D01*
D10*
X165100000Y-117928571D02*
X165245142Y-118073714D01*
X165100000Y-118218857D01*
X164954857Y-118073714D01*
X165100000Y-117928571D01*
X165100000Y-118218857D01*
X117420571Y-80626857D02*
X117420571Y-82658857D01*
X116694857Y-79465714D02*
X115969142Y-81642857D01*
X117856000Y-81642857D01*
X179759428Y-82658857D02*
X180340000Y-82658857D01*
X180630285Y-82513714D01*
X180775428Y-82368571D01*
X181065714Y-81933142D01*
X181210857Y-81352571D01*
X181210857Y-80191428D01*
X181065714Y-79901142D01*
X180920571Y-79756000D01*
X180630285Y-79610857D01*
X180049714Y-79610857D01*
X179759428Y-79756000D01*
X179614285Y-79901142D01*
X179469142Y-80191428D01*
X179469142Y-80917142D01*
X179614285Y-81207428D01*
X179759428Y-81352571D01*
X180049714Y-81497714D01*
X180630285Y-81497714D01*
X180920571Y-81352571D01*
X181065714Y-81207428D01*
X181210857Y-80917142D01*
X167349714Y-80917142D02*
X167059428Y-80772000D01*
X166914285Y-80626857D01*
X166769142Y-80336571D01*
X166769142Y-80191428D01*
X166914285Y-79901142D01*
X167059428Y-79756000D01*
X167349714Y-79610857D01*
X167930285Y-79610857D01*
X168220571Y-79756000D01*
X168365714Y-79901142D01*
X168510857Y-80191428D01*
X168510857Y-80336571D01*
X168365714Y-80626857D01*
X168220571Y-80772000D01*
X167930285Y-80917142D01*
X167349714Y-80917142D01*
X167059428Y-81062285D01*
X166914285Y-81207428D01*
X166769142Y-81497714D01*
X166769142Y-82078285D01*
X166914285Y-82368571D01*
X167059428Y-82513714D01*
X167349714Y-82658857D01*
X167930285Y-82658857D01*
X168220571Y-82513714D01*
X168365714Y-82368571D01*
X168510857Y-82078285D01*
X168510857Y-81497714D01*
X168365714Y-81207428D01*
X168220571Y-81062285D01*
X167930285Y-80917142D01*
X84364285Y-107188000D02*
X85815714Y-107188000D01*
X84074000Y-108058857D02*
X85090000Y-105010857D01*
X86106000Y-108058857D01*
X187633428Y-108058857D02*
X186182000Y-108058857D01*
X186182000Y-105010857D01*
X103486857Y-93762285D02*
X104502857Y-93762285D01*
X104938285Y-95358857D02*
X103486857Y-95358857D01*
X103486857Y-92310857D01*
X104938285Y-92310857D01*
X90133714Y-92310857D02*
X90859428Y-95358857D01*
X91440000Y-93181714D01*
X92020571Y-95358857D01*
X92746285Y-92310857D01*
D11*
X100632380Y-106800952D02*
X102567619Y-106800952D01*
D10*
X154069142Y-92310857D02*
X154069142Y-94778285D01*
X154214285Y-95068571D01*
X154359428Y-95213714D01*
X154649714Y-95358857D01*
X155230285Y-95358857D01*
X155520571Y-95213714D01*
X155665714Y-95068571D01*
X155810857Y-94778285D01*
X155810857Y-92310857D01*
D11*
X119924285Y-81038095D02*
X120287142Y-81159047D01*
X120891904Y-81159047D01*
X121133809Y-81038095D01*
X121254761Y-80917142D01*
X121375714Y-80675238D01*
X121375714Y-80433333D01*
X121254761Y-80191428D01*
X121133809Y-80070476D01*
X120891904Y-79949523D01*
X120408095Y-79828571D01*
X120166190Y-79707619D01*
X120045238Y-79586666D01*
X119924285Y-79344761D01*
X119924285Y-79102857D01*
X120045238Y-78860952D01*
X120166190Y-78740000D01*
X120408095Y-78619047D01*
X121012857Y-78619047D01*
X121375714Y-78740000D01*
X120650000Y-78256190D02*
X120650000Y-81521904D01*
D10*
X103124000Y-79610857D02*
X105010857Y-79610857D01*
X103994857Y-80772000D01*
X104430285Y-80772000D01*
X104720571Y-80917142D01*
X104865714Y-81062285D01*
X105010857Y-81352571D01*
X105010857Y-82078285D01*
X104865714Y-82368571D01*
X104720571Y-82513714D01*
X104430285Y-82658857D01*
X103559428Y-82658857D01*
X103269142Y-82513714D01*
X103124000Y-82368571D01*
X167640000Y-95358857D02*
X167640000Y-92310857D01*
X109691714Y-108058857D02*
X109691714Y-105010857D01*
X110417428Y-105010857D01*
X110852857Y-105156000D01*
X111143142Y-105446285D01*
X111288285Y-105736571D01*
X111433428Y-106317142D01*
X111433428Y-106752571D01*
X111288285Y-107333142D01*
X111143142Y-107623428D01*
X110852857Y-107913714D01*
X110417428Y-108058857D01*
X109691714Y-108058857D01*
D11*
X196366190Y-94705714D02*
X196970952Y-94705714D01*
X196970952Y-91077142D01*
X196366190Y-91077142D01*
X177679047Y-119017142D02*
X177800000Y-119138095D01*
X177679047Y-119259047D01*
X177558095Y-119138095D01*
X177679047Y-119017142D01*
X177679047Y-119259047D01*
X177195238Y-116840000D02*
X177437142Y-116719047D01*
X178041904Y-116719047D01*
X178283809Y-116840000D01*
X178404761Y-117081904D01*
X178404761Y-117323809D01*
X178283809Y-117565714D01*
X178162857Y-117686666D01*
X177920952Y-117807619D01*
X177800000Y-117928571D01*
X177679047Y-118170476D01*
X177679047Y-118291428D01*
X191588571Y-103898095D02*
X189411428Y-107163809D01*
D12*
X81884761Y-92891428D02*
X82005714Y-92770476D01*
X82247619Y-92649523D01*
X82731428Y-92891428D01*
X82973333Y-92770476D01*
X83094285Y-92649523D01*
D10*
X79901142Y-95649142D02*
X79610857Y-95504000D01*
X79320571Y-95213714D01*
X78885142Y-94778285D01*
X78594857Y-94633142D01*
X78304571Y-94633142D01*
X78449714Y-95358857D02*
X78159428Y-95213714D01*
X77869142Y-94923428D01*
X77724000Y-94342857D01*
X77724000Y-93326857D01*
X77869142Y-92746285D01*
X78159428Y-92456000D01*
X78449714Y-92310857D01*
X79030285Y-92310857D01*
X79320571Y-92456000D01*
X79610857Y-92746285D01*
X79756000Y-93326857D01*
X79756000Y-94342857D01*
X79610857Y-94923428D01*
X79320571Y-95213714D01*
X79030285Y-95358857D01*
X78449714Y-95358857D01*
X124133428Y-120468571D02*
X123988285Y-120613714D01*
X123552857Y-120758857D01*
X123262571Y-120758857D01*
X122827142Y-120613714D01*
X122536857Y-120323428D01*
X122391714Y-120033142D01*
X122246571Y-119452571D01*
X122246571Y-119017142D01*
X122391714Y-118436571D01*
X122536857Y-118146285D01*
X122827142Y-117856000D01*
X123262571Y-117710857D01*
X123552857Y-117710857D01*
X123988285Y-117856000D01*
X124133428Y-118001142D01*
D11*
X138732380Y-105228571D02*
X140667619Y-105228571D01*
X140667619Y-105954285D02*
X138732380Y-105954285D01*
X176711428Y-103777142D02*
X178888571Y-107042857D01*
D10*
X130265714Y-79610857D02*
X128814285Y-79610857D01*
X128669142Y-81062285D01*
X128814285Y-80917142D01*
X129104571Y-80772000D01*
X129830285Y-80772000D01*
X130120571Y-80917142D01*
X130265714Y-81062285D01*
X130410857Y-81352571D01*
X130410857Y-82078285D01*
X130265714Y-82368571D01*
X130120571Y-82513714D01*
X129830285Y-82658857D01*
X129104571Y-82658857D01*
X128814285Y-82513714D01*
X128669142Y-82368571D01*
D12*
X94766190Y-91319047D02*
X94766190Y-91802857D01*
X95733809Y-91319047D02*
X95733809Y-91802857D01*
X108070952Y-91319047D02*
X107829047Y-91802857D01*
D10*
X173191714Y-108058857D02*
X173191714Y-105010857D01*
X174933428Y-108058857D02*
X173627142Y-106317142D01*
X174933428Y-105010857D02*
X173191714Y-106752571D01*
D11*
X145469428Y-79901142D02*
X146050000Y-79465714D01*
X146630571Y-79901142D01*
X159233809Y-94826666D02*
X159112857Y-94826666D01*
X158870952Y-94705714D01*
X158750000Y-94463809D01*
X158750000Y-93254285D01*
X158629047Y-93012380D01*
X158387142Y-92891428D01*
X158629047Y-92770476D01*
X158750000Y-92528571D01*
X158750000Y-91319047D01*
X158870952Y-91077142D01*
X159112857Y-90956190D01*
X159233809Y-90956190D01*
D10*
X161725428Y-105010857D02*
X161725428Y-107188000D01*
X161580285Y-107623428D01*
X161290000Y-107913714D01*
X160854571Y-108058857D01*
X160564285Y-108058857D01*
X96774000Y-117710857D02*
X98806000Y-117710857D01*
X96774000Y-120758857D01*
X98806000Y-120758857D01*
X152545142Y-118073714D02*
X152545142Y-118218857D01*
X152400000Y-118509142D01*
X152254857Y-118654285D01*
X192894857Y-79610857D02*
X193185142Y-79610857D01*
X193475428Y-79756000D01*
X193620571Y-79901142D01*
X193765714Y-80191428D01*
X193910857Y-80772000D01*
X193910857Y-81497714D01*
X193765714Y-82078285D01*
X193620571Y-82368571D01*
X193475428Y-82513714D01*
X193185142Y-82658857D01*
X192894857Y-82658857D01*
X192604571Y-82513714D01*
X192459428Y-82368571D01*
X192314285Y-82078285D01*
X192169142Y-81497714D01*
X192169142Y-80772000D01*
X192314285Y-80191428D01*
X192459428Y-79901142D01*
X192604571Y-79756000D01*
X192894857Y-79610857D01*
X142820571Y-79610857D02*
X142240000Y-79610857D01*
X141949714Y-79756000D01*
X141804571Y-79901142D01*
X141514285Y-80336571D01*
X141369142Y-80917142D01*
X141369142Y-82078285D01*
X141514285Y-82368571D01*
X141659428Y-82513714D01*
X141949714Y-82658857D01*
X142530285Y-82658857D01*
X142820571Y-82513714D01*
X142965714Y-82368571D01*
X143110857Y-82078285D01*
X143110857Y-81352571D01*
X142965714Y-81062285D01*
X142820571Y-80917142D01*
X142530285Y-80772000D01*
X141949714Y-80772000D01*
X141659428Y-80917142D01*
X141514285Y-81062285D01*
X141369142Y-81352571D01*
D11*
X184633809Y-94705714D02*
X184029047Y-94705714D01*
X184029047Y-91077142D01*
X184633809Y-91077142D01*
D12*
X88609714Y-104865714D02*
X89045142Y-105301142D01*
D11*
X164132380Y-104865714D02*
X166067619Y-105591428D01*
X164132380Y-106317142D01*
X146050000Y-94705714D02*
X146050000Y-91077142D01*
D10*
X142240000Y-93907428D02*
X142240000Y-95358857D01*
X141224000Y-92310857D02*
X142240000Y-93907428D01*
X143256000Y-92310857D01*
X172974000Y-120758857D02*
X172974000Y-117710857D01*
X173990000Y-119888000D01*
X175006000Y-117710857D01*
X175006000Y-120758857D01*
X148807714Y-119162285D02*
X149243142Y-119307428D01*
X149388285Y-119452571D01*
X149533428Y-119742857D01*
X149533428Y-120178285D01*
X149388285Y-120468571D01*
X149243142Y-120613714D01*
X148952857Y-120758857D01*
X147791714Y-120758857D01*
X147791714Y-117710857D01*
X148807714Y-117710857D01*
X149098000Y-117856000D01*
X149243142Y-118001142D01*
X149388285Y-118291428D01*
X149388285Y-118581714D01*
X149243142Y-118872000D01*
X149098000Y-119017142D01*
X148807714Y-119162285D01*
X147791714Y-119162285D01*
X96919142Y-107913714D02*
X97354571Y-108058857D01*
X98080285Y-108058857D01*
X98370571Y-107913714D01*
X98515714Y-107768571D01*
X98660857Y-107478285D01*
X98660857Y-107188000D01*
X98515714Y-106897714D01*
X98370571Y-106752571D01*
X98080285Y-106607428D01*
X97499714Y-106462285D01*
X97209428Y-106317142D01*
X97064285Y-106172000D01*
X96919142Y-105881714D01*
X96919142Y-105591428D01*
X97064285Y-105301142D01*
X97209428Y-105156000D01*
X97499714Y-105010857D01*
X98225428Y-105010857D01*
X98660857Y-105156000D01*
X153924000Y-79610857D02*
X155956000Y-79610857D01*
X154649714Y-82658857D01*
D11*
X82550000Y-80917142D02*
X82670952Y-81038095D01*
X82550000Y-81159047D01*
X82429047Y-81038095D01*
X82550000Y-80917142D01*
X82550000Y-81159047D01*
X82550000Y-80191428D02*
X82429047Y-78740000D01*
X82550000Y-78619047D01*
X82670952Y-78740000D01*
X82550000Y-80191428D01*
X82550000Y-78619047D01*
X133470952Y-93738095D02*
X133470952Y-93859047D01*
X133350000Y-94100952D01*
X133229047Y-94221904D01*
X133350000Y-92286666D02*
X133470952Y-92407619D01*
X133350000Y-92528571D01*
X133229047Y-92407619D01*
X133350000Y-92286666D01*
X133350000Y-92528571D01*
X184633809Y-82126666D02*
X184512857Y-82005714D01*
X184270952Y-81642857D01*
X184150000Y-81400952D01*
X184029047Y-81038095D01*
X183908095Y-80433333D01*
X183908095Y-79949523D01*
X184029047Y-79344761D01*
X184150000Y-78981904D01*
X184270952Y-78740000D01*
X184512857Y-78377142D01*
X184633809Y-78256190D01*
D10*
X117783428Y-95358857D02*
X116767428Y-93907428D01*
X116041714Y-95358857D02*
X116041714Y-92310857D01*
X117202857Y-92310857D01*
X117493142Y-92456000D01*
X117638285Y-92601142D01*
X117783428Y-92891428D01*
X117783428Y-93326857D01*
X117638285Y-93617142D01*
X117493142Y-93762285D01*
X117202857Y-93907428D01*
X116041714Y-93907428D01*
X136688285Y-105156000D02*
X136398000Y-105010857D01*
X135962571Y-105010857D01*
X135527142Y-105156000D01*
X135236857Y-105446285D01*
X135091714Y-105736571D01*
X134946571Y-106317142D01*
X134946571Y-106752571D01*
X135091714Y-107333142D01*
X135236857Y-107623428D01*
X135527142Y-107913714D01*
X135962571Y-108058857D01*
X136252857Y-108058857D01*
X136688285Y-107913714D01*
X136833428Y-107768571D01*
X136833428Y-106752571D01*
X136252857Y-106752571D01*
D11*
X120650000Y-93617142D02*
X120770952Y-93738095D01*
X120650000Y-93859047D01*
X120529047Y-93738095D01*
X120650000Y-93617142D01*
X120650000Y-93859047D01*
X120650000Y-92286666D02*
X120770952Y-92407619D01*
X120650000Y-92528571D01*
X120529047Y-92407619D01*
X120650000Y-92286666D01*
X120650000Y-92528571D01*
D10*
X128669142Y-92310857D02*
X130410857Y-92310857D01*
X129540000Y-95358857D02*
X129540000Y-92310857D01*
D11*
X196366190Y-82126666D02*
X196487142Y-82005714D01*
X196729047Y-81642857D01*
X196850000Y-81400952D01*
X196970952Y-81038095D01*
X197091904Y-80433333D01*
X197091904Y-79949523D01*
X196970952Y-79344761D01*
X196850000Y-78981904D01*
X196729047Y-78740000D01*
X196487142Y-78377142D01*
X196366190Y-78256190D01*
X107163809Y-79465714D02*
X108978095Y-79465714D01*
X107889523Y-78377142D02*
X107163809Y-81642857D01*
X108736190Y-80554285D02*
X106921904Y-80554285D01*
X108010476Y-81642857D02*
X108736190Y-78377142D01*
D10*
X134874000Y-117710857D02*
X135890000Y-120758857D01*
X136906000Y-117710857D01*
X192241714Y-95358857D02*
X192241714Y-92310857D01*
X193402857Y-92310857D01*
X193693142Y-92456000D01*
X193838285Y-92601142D01*
X193983428Y-92891428D01*
X193983428Y-93326857D01*
X193838285Y-93617142D01*
X193693142Y-93762285D01*
X193402857Y-93907428D01*
X192241714Y-93907428D01*
D11*
X132382380Y-81159047D02*
X134317619Y-78619047D01*
X132745238Y-78619047D02*
X132987142Y-78740000D01*
X133108095Y-78981904D01*
X132987142Y-79223809D01*
X132745238Y-79344761D01*
X132503333Y-79223809D01*
X132382380Y-78981904D01*
X132503333Y-78740000D01*
X132745238Y-78619047D01*
X134196666Y-81038095D02*
X134317619Y-80796190D01*
X134196666Y-80554285D01*
X133954761Y-80433333D01*
X133712857Y-80554285D01*
X133591904Y-80796190D01*
X133712857Y-81038095D01*
X133954761Y-81159047D01*
X134196666Y-81038095D01*
D10*
X79610857Y-82658857D02*
X77869142Y-82658857D01*
X78740000Y-82658857D02*
X78740000Y-79610857D01*
X78449714Y-80046285D01*
X78159428Y-80336571D01*
X77869142Y-80481714D01*
D11*
X95794285Y-79949523D02*
X95673333Y-79828571D01*
X95431428Y-79707619D01*
X95189523Y-79707619D01*
X94947619Y-79828571D01*
X94826666Y-79949523D01*
X94705714Y-80191428D01*
X94705714Y-80433333D01*
X94826666Y-80675238D01*
X94947619Y-80796190D01*
X95189523Y-80917142D01*
X95431428Y-80917142D01*
X95673333Y-80796190D01*
X95794285Y-80675238D01*
X95794285Y-79707619D02*
X95794285Y-80675238D01*
X95915238Y-80796190D01*
X96036190Y-80796190D01*
X96278095Y-80675238D01*
X96399047Y-80433333D01*
X96399047Y-79828571D01*
X96157142Y-79465714D01*
X95794285Y-79223809D01*
X95310476Y-79102857D01*
X94826666Y-79223809D01*
X94463809Y-79465714D01*
X94221904Y-79828571D01*
X94100952Y-80312380D01*
X94221904Y-80796190D01*
X94463809Y-81159047D01*
X94826666Y-81400952D01*
X95310476Y-81521904D01*
X95794285Y-81400952D01*
X96157142Y-81159047D01*
X113332380Y-105591428D02*
X115267619Y-105591428D01*
D10*
X90569142Y-79901142D02*
X90714285Y-79756000D01*
X91004571Y-79610857D01*
X91730285Y-79610857D01*
X92020571Y-79756000D01*
X92165714Y-79901142D01*
X92310857Y-80191428D01*
X92310857Y-80481714D01*
X92165714Y-80917142D01*
X90424000Y-82658857D01*
X92310857Y-82658857D01*
D11*
X159838571Y-81159047D02*
X159717619Y-81159047D01*
X159475714Y-81038095D01*
X159112857Y-80675238D01*
X158508095Y-79949523D01*
X158266190Y-79586666D01*
X158145238Y-79223809D01*
X158145238Y-78981904D01*
X158266190Y-78740000D01*
X158508095Y-78619047D01*
X158629047Y-78619047D01*
X158870952Y-78740000D01*
X158991904Y-78981904D01*
X158991904Y-79102857D01*
X158870952Y-79344761D01*
X158750000Y-79465714D01*
X158024285Y-79949523D01*
X157903333Y-80070476D01*
X157782380Y-80312380D01*
X157782380Y-80675238D01*
X157903333Y-80917142D01*
X158024285Y-81038095D01*
X158266190Y-81159047D01*
X158629047Y-81159047D01*
X158870952Y-81038095D01*
X158991904Y-80917142D01*
X159354761Y-80433333D01*
X159475714Y-80070476D01*
X159475714Y-79828571D01*
X126032380Y-105591428D02*
X127967619Y-105591428D01*
X127000000Y-106559047D02*
X127000000Y-104623809D01*
X153367619Y-104865714D02*
X151432380Y-105591428D01*
X153367619Y-106317142D01*
D10*
X147719142Y-108058857D02*
X147719142Y-105010857D01*
X147719142Y-106462285D02*
X149460857Y-106462285D01*
X149460857Y-108058857D02*
X149460857Y-105010857D01*
X123625428Y-106462285D02*
X122609428Y-106462285D01*
X122609428Y-108058857D02*
X122609428Y-105010857D01*
X124060857Y-105010857D01*
D11*
X171450000Y-78340857D02*
X171450000Y-79066571D01*
X170724285Y-78776285D02*
X171450000Y-79066571D01*
X172175714Y-78776285D01*
X171014571Y-79647142D02*
X171450000Y-79066571D01*
X171885428Y-79647142D01*
%TO.C,REF\u002A\u002A*%
G36*
X133899606Y-131301634D02*
G01*
X133916300Y-131310860D01*
X133946719Y-131330909D01*
X133970273Y-131352391D01*
X133987966Y-131379838D01*
X134000798Y-131417780D01*
X134009773Y-131470751D01*
X134015892Y-131543281D01*
X134020158Y-131639904D01*
X134023573Y-131765150D01*
X134024367Y-131799515D01*
X134032925Y-132176065D01*
X137678612Y-132176065D01*
X137687170Y-131799515D01*
X137690530Y-131666822D01*
X137694504Y-131563827D01*
X137700093Y-131485998D01*
X137708301Y-131428803D01*
X137720129Y-131387710D01*
X137736579Y-131358186D01*
X137758654Y-131335701D01*
X137787356Y-131315721D01*
X137795237Y-131310860D01*
X137873084Y-131281729D01*
X137953319Y-131283115D01*
X138027699Y-131312995D01*
X138087979Y-131369348D01*
X138098644Y-131385285D01*
X138108125Y-131402742D01*
X138115627Y-131423165D01*
X138121381Y-131450523D01*
X138125616Y-131488786D01*
X138128562Y-131541921D01*
X138130449Y-131613897D01*
X138131506Y-131708685D01*
X138131965Y-131830253D01*
X138132055Y-131962116D01*
X138131933Y-132110450D01*
X138131414Y-132228523D01*
X138130267Y-132320302D01*
X138128262Y-132389756D01*
X138125171Y-132440855D01*
X138120762Y-132477567D01*
X138114807Y-132503862D01*
X138107074Y-132523708D01*
X138098644Y-132538947D01*
X138089795Y-132554679D01*
X138082250Y-132568808D01*
X138074223Y-132581419D01*
X138063925Y-132592598D01*
X138049566Y-132602431D01*
X138029358Y-132611003D01*
X138001513Y-132618401D01*
X137964243Y-132624711D01*
X137915758Y-132630017D01*
X137854270Y-132634406D01*
X137777990Y-132637964D01*
X137685130Y-132640776D01*
X137573902Y-132642929D01*
X137442516Y-132644507D01*
X137289184Y-132645597D01*
X137112118Y-132646284D01*
X136909529Y-132646655D01*
X136679628Y-132646795D01*
X136420628Y-132646790D01*
X136130738Y-132646725D01*
X135852339Y-132646688D01*
X135539777Y-132646667D01*
X135259620Y-132646607D01*
X135010042Y-132646478D01*
X134789218Y-132646253D01*
X134595320Y-132645903D01*
X134426523Y-132645400D01*
X134281000Y-132644716D01*
X134156925Y-132643823D01*
X134052471Y-132642692D01*
X133965813Y-132641296D01*
X133895124Y-132639605D01*
X133838579Y-132637592D01*
X133794349Y-132635228D01*
X133760611Y-132632485D01*
X133735536Y-132629336D01*
X133717299Y-132625751D01*
X133704074Y-132621703D01*
X133694034Y-132617163D01*
X133687158Y-132613213D01*
X133658300Y-132594576D01*
X133635110Y-132575059D01*
X133616970Y-132550902D01*
X133603262Y-132518348D01*
X133593366Y-132473637D01*
X133586664Y-132413010D01*
X133582538Y-132332708D01*
X133580368Y-132228971D01*
X133579535Y-132098042D01*
X133579417Y-131958687D01*
X133579559Y-131810875D01*
X133580100Y-131693309D01*
X133581272Y-131602005D01*
X133583307Y-131532979D01*
X133586440Y-131482245D01*
X133590901Y-131445818D01*
X133596924Y-131419715D01*
X133604741Y-131399949D01*
X133612892Y-131385285D01*
X133668914Y-131323317D01*
X133740869Y-131287371D01*
X133820514Y-131279469D01*
X133899606Y-131301634D01*
G37*
G36*
X127641761Y-66833790D02*
G01*
X127705246Y-66845434D01*
X127734683Y-66876248D01*
X127746356Y-66944795D01*
X127747130Y-66953910D01*
X127744578Y-67037160D01*
X127726538Y-67099407D01*
X127721804Y-67106310D01*
X127672082Y-67133286D01*
X127596078Y-67146993D01*
X127522014Y-67144827D01*
X127481581Y-67128475D01*
X127464395Y-67079510D01*
X127462868Y-67001703D01*
X127474812Y-66921461D01*
X127498043Y-66865189D01*
X127503875Y-66859115D01*
X127560451Y-66837624D01*
X127639404Y-66833575D01*
X127641761Y-66833790D01*
G37*
G36*
X130278261Y-58877945D02*
G01*
X130397767Y-58837286D01*
X130544908Y-58817294D01*
X130693000Y-58819587D01*
X130814381Y-58845410D01*
X130949312Y-58920323D01*
X131053169Y-59024446D01*
X131121610Y-59146833D01*
X131150293Y-59276533D01*
X131134876Y-59402600D01*
X131076873Y-59507321D01*
X131007467Y-59574536D01*
X130923570Y-59620801D01*
X130810892Y-59651647D01*
X130655142Y-59672606D01*
X130648114Y-59673288D01*
X130452171Y-59692105D01*
X130448452Y-59827681D01*
X130444543Y-59972228D01*
X130440287Y-60068749D01*
X130432746Y-60127217D01*
X130418983Y-60157606D01*
X130396058Y-60169888D01*
X130361035Y-60174037D01*
X130346038Y-60175349D01*
X130277448Y-60173818D01*
X130238147Y-60157846D01*
X130237618Y-60157056D01*
X130228738Y-60123769D01*
X130219629Y-60050162D01*
X130210036Y-59932668D01*
X130199707Y-59767717D01*
X130188389Y-59551741D01*
X130176293Y-59291602D01*
X130175859Y-59281842D01*
X130395634Y-59281842D01*
X130395946Y-59365960D01*
X130406947Y-59425365D01*
X130413466Y-59435904D01*
X130462314Y-59452627D01*
X130546965Y-59455415D01*
X130647293Y-59445905D01*
X130743171Y-59425736D01*
X130800429Y-59404411D01*
X130883211Y-59346291D01*
X130908706Y-59281068D01*
X130877558Y-59204997D01*
X130841950Y-59162771D01*
X130735568Y-59077938D01*
X130628231Y-59037974D01*
X130529989Y-59043555D01*
X130450894Y-59095354D01*
X130423808Y-59134699D01*
X130405193Y-59196818D01*
X130395634Y-59281842D01*
X130175859Y-59281842D01*
X130160620Y-58939263D01*
X130278261Y-58877945D01*
G37*
G36*
X124897958Y-66997432D02*
G01*
X124960661Y-67059383D01*
X124987629Y-67145441D01*
X124973658Y-67241538D01*
X124930854Y-67314579D01*
X124877324Y-67342063D01*
X124797583Y-67349838D01*
X124720096Y-67337722D01*
X124681291Y-67316193D01*
X124652658Y-67252434D01*
X124649468Y-67158068D01*
X124672253Y-67054925D01*
X124674767Y-67048117D01*
X124707024Y-66995549D01*
X124762992Y-66975471D01*
X124804726Y-66973656D01*
X124897958Y-66997432D01*
G37*
G36*
X132093226Y-58952768D02*
G01*
X132193208Y-59009197D01*
X132255145Y-59073439D01*
X132276305Y-59136987D01*
X132275263Y-59176112D01*
X132259404Y-59242070D01*
X132217625Y-59270232D01*
X132184061Y-59276003D01*
X132099168Y-59265760D01*
X132048815Y-59237607D01*
X132006060Y-59207466D01*
X131962726Y-59209838D01*
X131911382Y-59233517D01*
X131830546Y-59283838D01*
X131779462Y-59344189D01*
X131743049Y-59434943D01*
X131731180Y-59476906D01*
X131713381Y-59589102D01*
X131727233Y-59654353D01*
X131792783Y-59720015D01*
X131895514Y-59758774D01*
X132018686Y-59765251D01*
X132056547Y-59760197D01*
X132169598Y-59744923D01*
X132290183Y-59735417D01*
X132310000Y-59734677D01*
X132390560Y-59734930D01*
X132430038Y-59749023D01*
X132445344Y-59788010D01*
X132449776Y-59826061D01*
X132449349Y-59891682D01*
X132421758Y-59930997D01*
X132356366Y-59963947D01*
X132260434Y-59989339D01*
X132132724Y-60003752D01*
X131991206Y-60007372D01*
X131853849Y-60000380D01*
X131738623Y-59982960D01*
X131666009Y-59956910D01*
X131573027Y-59865509D01*
X131517543Y-59730328D01*
X131499831Y-59552142D01*
X131501728Y-59493774D01*
X131513659Y-59371128D01*
X131538048Y-59280309D01*
X131583043Y-59195246D01*
X131605662Y-59161292D01*
X131712607Y-59043740D01*
X131836670Y-58967949D01*
X131967120Y-58936700D01*
X132093226Y-58952768D01*
G37*
G36*
X134684114Y-59941814D02*
G01*
X134702565Y-59987022D01*
X134704857Y-60035827D01*
X134699316Y-60104968D01*
X134672462Y-60135558D01*
X134616728Y-60146060D01*
X134547895Y-60146012D01*
X134507871Y-60133965D01*
X134487896Y-60079845D01*
X134495396Y-60008616D01*
X134526691Y-59952159D01*
X134529088Y-59950068D01*
X134590142Y-59925927D01*
X134637945Y-59924742D01*
X134684114Y-59941814D01*
G37*
G36*
X131885941Y-60815027D02*
G01*
X131922963Y-60855518D01*
X131944710Y-60908965D01*
X131962899Y-60992333D01*
X131960906Y-61061274D01*
X131958566Y-61068622D01*
X131940552Y-61142004D01*
X131934668Y-61200579D01*
X131916957Y-61298146D01*
X131871691Y-61432148D01*
X131804599Y-61591449D01*
X131721407Y-61764912D01*
X131627842Y-61941400D01*
X131529631Y-62109779D01*
X131432501Y-62258910D01*
X131342178Y-62377658D01*
X131312125Y-62411146D01*
X131220632Y-62502418D01*
X131154924Y-62553920D01*
X131104792Y-62571434D01*
X131060025Y-62560739D01*
X131053764Y-62557409D01*
X131009851Y-62506131D01*
X131016860Y-62429406D01*
X131074945Y-62326516D01*
X131114833Y-62275056D01*
X131308974Y-62014859D01*
X131472147Y-61745136D01*
X131599569Y-61475902D01*
X131686459Y-61217169D01*
X131726787Y-60993770D01*
X131737281Y-60892501D01*
X131750087Y-60836035D01*
X131772110Y-60811300D01*
X131810256Y-60805223D01*
X131826470Y-60805085D01*
X131885941Y-60815027D01*
G37*
G36*
X121452176Y-67711653D02*
G01*
X121456455Y-67488379D01*
X121465303Y-67278577D01*
X121478695Y-67096515D01*
X121483572Y-67049641D01*
X121501252Y-66908014D01*
X121522034Y-66776098D01*
X121548721Y-66641067D01*
X121584116Y-66490091D01*
X121631020Y-66310345D01*
X121692236Y-66088998D01*
X121697601Y-66069944D01*
X121775903Y-65802591D01*
X121848895Y-65582001D01*
X121922372Y-65397952D01*
X122002128Y-65240220D01*
X122093957Y-65098582D01*
X122203653Y-64962817D01*
X122337010Y-64822702D01*
X122483828Y-64682784D01*
X122593370Y-64580343D01*
X122699915Y-64478889D01*
X122788227Y-64393013D01*
X122826950Y-64354189D01*
X122921973Y-64271966D01*
X123035147Y-64194371D01*
X123084652Y-64166791D01*
X123189799Y-64110568D01*
X123291851Y-64050637D01*
X123333341Y-64023916D01*
X123431734Y-63969466D01*
X123538450Y-63927212D01*
X123551209Y-63923545D01*
X123647267Y-63892388D01*
X123760808Y-63848361D01*
X123815741Y-63824472D01*
X123970312Y-63760591D01*
X124153984Y-63694964D01*
X124346974Y-63633806D01*
X124529500Y-63583332D01*
X124681781Y-63549756D01*
X124699964Y-63546693D01*
X124783296Y-63538045D01*
X124913824Y-63530279D01*
X125080692Y-63523771D01*
X125273041Y-63518894D01*
X125480014Y-63516024D01*
X125605727Y-63515423D01*
X125829129Y-63515357D01*
X126004613Y-63516326D01*
X126142318Y-63519164D01*
X126252384Y-63524705D01*
X126344949Y-63533783D01*
X126430152Y-63547232D01*
X126518132Y-63565887D01*
X126619028Y-63590581D01*
X126666742Y-63602711D01*
X126819613Y-63642826D01*
X126958487Y-63682221D01*
X127098053Y-63725588D01*
X127252997Y-63777616D01*
X127438007Y-63842995D01*
X127578343Y-63893779D01*
X127675291Y-63936948D01*
X127789571Y-63998898D01*
X127868628Y-64048061D01*
X127974110Y-64125230D01*
X128094766Y-64223986D01*
X128220147Y-64334547D01*
X128339804Y-64447133D01*
X128443290Y-64551964D01*
X128520154Y-64639257D01*
X128556596Y-64692056D01*
X128603891Y-64768551D01*
X128670453Y-64858873D01*
X128702751Y-64898113D01*
X128755879Y-64972826D01*
X128824780Y-65088159D01*
X128902939Y-65231122D01*
X128983839Y-65388727D01*
X129060967Y-65547985D01*
X129127807Y-65695906D01*
X129177843Y-65819501D01*
X129201448Y-65892342D01*
X129229142Y-66000902D01*
X129256576Y-66108704D01*
X129260605Y-66124570D01*
X129308477Y-66336246D01*
X129344288Y-66551639D01*
X129369189Y-66782835D01*
X129384332Y-67041916D01*
X129390868Y-67340967D01*
X129391299Y-67496170D01*
X129382327Y-67929982D01*
X129357101Y-68310000D01*
X129315345Y-68638249D01*
X129256782Y-68916749D01*
X129181135Y-69147526D01*
X129157597Y-69202242D01*
X129119678Y-69289899D01*
X129094339Y-69357053D01*
X129087828Y-69382984D01*
X129072551Y-69418892D01*
X129032176Y-69488431D01*
X128974883Y-69577661D01*
X128964457Y-69593183D01*
X128819115Y-69803006D01*
X128692547Y-69972611D01*
X128575463Y-70112602D01*
X128458570Y-70233584D01*
X128332578Y-70346161D01*
X128237478Y-70422923D01*
X128101223Y-70525456D01*
X127955170Y-70628678D01*
X127808643Y-70726707D01*
X127670967Y-70813660D01*
X127551465Y-70883655D01*
X127459462Y-70930810D01*
X127404280Y-70949242D01*
X127403152Y-70949294D01*
X127355625Y-70958942D01*
X127270250Y-70983323D01*
X127163826Y-71017566D01*
X127141895Y-71025032D01*
X126918943Y-71099633D01*
X126716807Y-71163351D01*
X126543075Y-71214020D01*
X126405334Y-71249471D01*
X126311173Y-71267537D01*
X126286571Y-71269417D01*
X126216280Y-71274665D01*
X126109912Y-71288042D01*
X125988433Y-71306851D01*
X125967257Y-71310488D01*
X125743146Y-71340673D01*
X125487673Y-71360600D01*
X125224040Y-71369385D01*
X124975452Y-71366147D01*
X124806114Y-71354625D01*
X124532266Y-71323514D01*
X124284728Y-71288871D01*
X124071848Y-71252107D01*
X123901974Y-71214632D01*
X123802684Y-71185101D01*
X123614965Y-71116381D01*
X123465527Y-71058060D01*
X123359727Y-71012344D01*
X123302922Y-70981437D01*
X123298080Y-70977392D01*
X123246885Y-70953725D01*
X123219910Y-70950570D01*
X123164217Y-70936638D01*
X123085991Y-70901780D01*
X123058802Y-70886929D01*
X123001739Y-70846953D01*
X122914625Y-70777420D01*
X122806859Y-70686713D01*
X122687838Y-70583219D01*
X122566963Y-70475321D01*
X122453631Y-70371403D01*
X122357243Y-70279851D01*
X122287197Y-70209048D01*
X122253626Y-70168662D01*
X122218867Y-70124432D01*
X122157017Y-70057189D01*
X122101226Y-70000967D01*
X122034357Y-69930427D01*
X121988866Y-69872241D01*
X121975828Y-69844315D01*
X121960694Y-69803873D01*
X121921154Y-69731906D01*
X121869826Y-69650251D01*
X121790017Y-69505774D01*
X121709780Y-69316676D01*
X121633418Y-69096202D01*
X121565232Y-68857596D01*
X121509526Y-68614102D01*
X121481218Y-68454113D01*
X121466986Y-68319630D01*
X121457417Y-68141546D01*
X121452771Y-67946034D01*
X121690419Y-67946034D01*
X121694049Y-68101287D01*
X121702972Y-68236673D01*
X121717593Y-68364875D01*
X121726199Y-68423989D01*
X121770528Y-68650656D01*
X121833159Y-68885966D01*
X121908923Y-69114975D01*
X121992652Y-69322739D01*
X122079175Y-69494314D01*
X122117690Y-69555800D01*
X122175836Y-69643033D01*
X122218321Y-69710681D01*
X122236863Y-69745491D01*
X122237085Y-69746802D01*
X122256817Y-69789830D01*
X122310853Y-69864066D01*
X122391456Y-69960675D01*
X122490889Y-70070827D01*
X122601415Y-70185688D01*
X122715296Y-70296427D01*
X122732947Y-70312836D01*
X122928393Y-70484886D01*
X123104536Y-70619701D01*
X123276160Y-70727041D01*
X123458049Y-70816669D01*
X123560116Y-70858933D01*
X123824700Y-70954778D01*
X124086870Y-71031781D01*
X124360471Y-71092872D01*
X124659345Y-71140984D01*
X124997337Y-71179048D01*
X125125428Y-71190372D01*
X125275573Y-71192684D01*
X125473176Y-71178216D01*
X125721336Y-71146685D01*
X125880171Y-71122022D01*
X126267298Y-71046917D01*
X126654554Y-70949590D01*
X127020304Y-70835895D01*
X127243208Y-70753215D01*
X127375823Y-70694311D01*
X127525298Y-70618728D01*
X127676477Y-70535076D01*
X127814199Y-70451965D01*
X127923308Y-70378006D01*
X127970228Y-70340260D01*
X128040428Y-70281757D01*
X128102119Y-70238221D01*
X128111117Y-70233101D01*
X128164839Y-70194674D01*
X128239892Y-70128472D01*
X128325706Y-70045452D01*
X128411710Y-69956569D01*
X128487334Y-69872779D01*
X128542008Y-69805038D01*
X128565160Y-69764301D01*
X128565337Y-69762321D01*
X128583688Y-69716191D01*
X128630686Y-69647321D01*
X128669514Y-69600742D01*
X128724256Y-69527351D01*
X128793350Y-69416787D01*
X128867399Y-69284856D01*
X128928386Y-69165313D01*
X128991201Y-69032593D01*
X129037049Y-68924309D01*
X129070882Y-68823607D01*
X129097650Y-68713632D01*
X129122306Y-68577529D01*
X129145840Y-68425085D01*
X129196086Y-68021638D01*
X129223169Y-67645012D01*
X129226710Y-67303940D01*
X129207384Y-67016152D01*
X129162754Y-66670420D01*
X129114965Y-66379083D01*
X129063184Y-66138525D01*
X129006580Y-65945131D01*
X128944319Y-65795284D01*
X128913524Y-65739942D01*
X128874587Y-65672675D01*
X128819687Y-65572919D01*
X128759339Y-65459855D01*
X128746398Y-65435142D01*
X128682817Y-65313949D01*
X128619389Y-65194199D01*
X128568483Y-65099227D01*
X128562789Y-65088740D01*
X128520614Y-65026724D01*
X128447130Y-64933717D01*
X128351542Y-64820009D01*
X128243051Y-64695894D01*
X128130862Y-64571662D01*
X128024176Y-64457607D01*
X127932197Y-64364021D01*
X127864128Y-64301195D01*
X127846231Y-64287379D01*
X127698065Y-64195823D01*
X127525322Y-64110959D01*
X127320403Y-64029890D01*
X127075704Y-63949715D01*
X126783626Y-63867538D01*
X126663943Y-63836531D01*
X126476388Y-63790092D01*
X126325736Y-63756882D01*
X126193068Y-63734171D01*
X126059466Y-63719227D01*
X125906012Y-63709321D01*
X125735028Y-63702445D01*
X125339306Y-63702249D01*
X124973184Y-63732456D01*
X124619716Y-63796165D01*
X124261953Y-63896475D01*
X123882948Y-64036485D01*
X123862685Y-64044768D01*
X123744303Y-64092182D01*
X123644824Y-64129825D01*
X123577143Y-64152939D01*
X123555816Y-64157933D01*
X123509025Y-64174707D01*
X123427266Y-64220261D01*
X123321076Y-64287319D01*
X123200993Y-64368607D01*
X123077554Y-64456848D01*
X122961297Y-64544769D01*
X122862758Y-64625094D01*
X122810088Y-64672787D01*
X122615557Y-64863630D01*
X122463551Y-65017672D01*
X122352827Y-65136252D01*
X122282137Y-65220707D01*
X122250237Y-65272378D01*
X122249221Y-65275485D01*
X122227011Y-65337449D01*
X122191415Y-65423446D01*
X122177216Y-65455469D01*
X122142020Y-65545224D01*
X122101569Y-65666132D01*
X122064286Y-65792921D01*
X122062348Y-65800109D01*
X122027166Y-65923012D01*
X121990338Y-66038356D01*
X121959353Y-66122807D01*
X121957094Y-66128124D01*
X121931317Y-66197494D01*
X121895242Y-66307526D01*
X121853740Y-66442839D01*
X121813445Y-66581770D01*
X121779744Y-66704477D01*
X121754360Y-66808313D01*
X121735768Y-66905669D01*
X121722445Y-67008937D01*
X121712867Y-67130506D01*
X121705509Y-67282768D01*
X121698849Y-67478113D01*
X121697413Y-67525199D01*
X121691676Y-67758232D01*
X121690419Y-67946034D01*
X121452771Y-67946034D01*
X121452488Y-67934132D01*
X121452176Y-67711653D01*
G37*
G36*
X127579369Y-68274655D02*
G01*
X127601247Y-68308415D01*
X127602737Y-68364511D01*
X127601968Y-68373008D01*
X127592857Y-68466473D01*
X127302571Y-68501725D01*
X127167765Y-68516399D01*
X126994043Y-68532830D01*
X126800444Y-68549344D01*
X126606009Y-68564268D01*
X126533314Y-68569346D01*
X126348849Y-68582457D01*
X126162561Y-68596821D01*
X125991797Y-68611027D01*
X125853903Y-68623663D01*
X125807600Y-68628416D01*
X125588498Y-68651724D01*
X125420175Y-68668364D01*
X125295757Y-68678532D01*
X125208372Y-68682425D01*
X125151149Y-68680238D01*
X125117213Y-68672168D01*
X125099695Y-68658409D01*
X125094663Y-68648742D01*
X125084374Y-68579759D01*
X125086980Y-68550695D01*
X125098334Y-68530043D01*
X125126874Y-68511119D01*
X125176855Y-68493360D01*
X125252536Y-68476204D01*
X125358173Y-68459088D01*
X125498022Y-68441450D01*
X125676340Y-68422725D01*
X125897383Y-68402352D01*
X126165409Y-68379768D01*
X126484674Y-68354410D01*
X126692971Y-68338365D01*
X126861957Y-68324366D01*
X127035310Y-68308165D01*
X127191554Y-68291867D01*
X127299828Y-68278852D01*
X127437818Y-68262728D01*
X127527946Y-68260377D01*
X127579369Y-68274655D01*
G37*
G36*
X132899451Y-59543921D02*
G01*
X132910666Y-59437770D01*
X133124971Y-59437770D01*
X133126143Y-59474294D01*
X133143057Y-59472977D01*
X133169637Y-59451676D01*
X133236185Y-59413960D01*
X133322471Y-59387064D01*
X133327000Y-59386220D01*
X133453642Y-59346719D01*
X133530932Y-59284271D01*
X133556435Y-59202278D01*
X133528178Y-59105005D01*
X133484079Y-59060407D01*
X133412903Y-59052237D01*
X133304940Y-59079466D01*
X133300690Y-59080938D01*
X133231093Y-59113831D01*
X133185916Y-59163040D01*
X133156493Y-59242932D01*
X133136216Y-59353656D01*
X133124971Y-59437770D01*
X132910666Y-59437770D01*
X132915160Y-59395238D01*
X132922141Y-59327723D01*
X132939481Y-59182119D01*
X132958211Y-59082217D01*
X132981484Y-59015689D01*
X133012454Y-58970208D01*
X133014003Y-58968539D01*
X133120137Y-58895653D01*
X133270768Y-58856583D01*
X133467540Y-58850903D01*
X133468172Y-58850934D01*
X133574091Y-58859193D01*
X133640144Y-58875209D01*
X133684506Y-58905520D01*
X133712426Y-58938795D01*
X133752870Y-59023941D01*
X133778793Y-59137921D01*
X133787556Y-59257219D01*
X133776523Y-59358318D01*
X133763426Y-59393466D01*
X133745000Y-59443995D01*
X133766357Y-59469733D01*
X133775764Y-59473719D01*
X133838572Y-59526176D01*
X133881743Y-59617254D01*
X133902081Y-59729892D01*
X133896389Y-59847029D01*
X133864307Y-59946269D01*
X133795048Y-60030952D01*
X133686795Y-60087104D01*
X133534317Y-60116689D01*
X133394184Y-60122641D01*
X133269278Y-60119660D01*
X133179339Y-60107498D01*
X133101401Y-60080784D01*
X133012499Y-60034147D01*
X133010262Y-60032866D01*
X132854181Y-59943363D01*
X132873119Y-59782234D01*
X132878819Y-59731810D01*
X133096128Y-59731810D01*
X133116105Y-59795843D01*
X133179805Y-59847087D01*
X133202628Y-59859679D01*
X133299778Y-59903064D01*
X133384185Y-59915873D01*
X133482651Y-59900198D01*
X133534801Y-59885577D01*
X133635735Y-59842853D01*
X133679418Y-59791805D01*
X133666174Y-59731570D01*
X133613819Y-59675349D01*
X133554500Y-59631737D01*
X133498000Y-59612919D01*
X133420242Y-59613367D01*
X133367791Y-59618862D01*
X133249076Y-59624517D01*
X133177685Y-59608765D01*
X133170355Y-59603729D01*
X133136693Y-59589180D01*
X133115674Y-59624016D01*
X133112227Y-59636073D01*
X133096128Y-59731810D01*
X132878819Y-59731810D01*
X132884615Y-59680536D01*
X132899451Y-59543921D01*
G37*
G36*
X118782685Y-66814583D02*
G01*
X118796951Y-66754235D01*
X118844565Y-66699340D01*
X118932754Y-66644448D01*
X119068744Y-66584106D01*
X119109219Y-66568237D01*
X119345114Y-66459485D01*
X119575860Y-66320454D01*
X119780335Y-66164639D01*
X119866119Y-66084656D01*
X119983586Y-65939859D01*
X120094377Y-65755527D01*
X120193270Y-65545706D01*
X120275042Y-65324443D01*
X120334472Y-65105783D01*
X120366336Y-64903773D01*
X120366252Y-64739488D01*
X120350883Y-64635371D01*
X120325931Y-64499541D01*
X120296013Y-64356577D01*
X120286406Y-64314458D01*
X120261247Y-64192867D01*
X120245554Y-64088632D01*
X120241416Y-64017359D01*
X120244215Y-63999260D01*
X120273479Y-63968542D01*
X120333772Y-63961019D01*
X120432423Y-63977047D01*
X120570624Y-64015106D01*
X120630235Y-64030065D01*
X120688556Y-64034195D01*
X120760121Y-64025917D01*
X120859466Y-64003654D01*
X120985926Y-63970003D01*
X121248429Y-63881061D01*
X121463931Y-63769325D01*
X121640672Y-63629854D01*
X121743681Y-63515692D01*
X121916193Y-63258271D01*
X122039569Y-62981793D01*
X122116826Y-62678148D01*
X122145862Y-62434296D01*
X122155284Y-62309611D01*
X122164924Y-62231405D01*
X122178898Y-62188231D01*
X122201321Y-62168641D01*
X122236310Y-62161189D01*
X122244403Y-62160236D01*
X122328623Y-62171124D01*
X122404060Y-62207077D01*
X122587005Y-62308961D01*
X122810614Y-62391060D01*
X123059920Y-62450212D01*
X123319961Y-62483254D01*
X123575771Y-62487025D01*
X123686898Y-62478174D01*
X123924206Y-62427773D01*
X124175697Y-62332638D01*
X124429483Y-62199907D01*
X124673676Y-62036720D01*
X124896388Y-61850217D01*
X125085731Y-61647538D01*
X125100308Y-61629283D01*
X125171228Y-61536066D01*
X125228208Y-61455343D01*
X125261091Y-61401662D01*
X125264234Y-61394515D01*
X125303748Y-61355914D01*
X125378628Y-61327413D01*
X125389807Y-61325098D01*
X125469322Y-61317428D01*
X125517028Y-61336295D01*
X125536475Y-61358073D01*
X125568148Y-61420424D01*
X125575394Y-61456518D01*
X125587291Y-61504923D01*
X125618326Y-61586742D01*
X125657947Y-61675942D01*
X125765040Y-61848231D01*
X125907206Y-61999152D01*
X126067267Y-62110537D01*
X126070423Y-62112180D01*
X126291928Y-62203690D01*
X126549253Y-62272336D01*
X126823822Y-62315536D01*
X127097054Y-62330705D01*
X127350371Y-62315260D01*
X127433200Y-62301691D01*
X127536322Y-62280025D01*
X127630198Y-62256337D01*
X127727955Y-62226333D01*
X127842725Y-62185719D01*
X127987636Y-62130200D01*
X128129885Y-62073848D01*
X128302841Y-62008338D01*
X128437263Y-61966361D01*
X128545990Y-61944403D01*
X128623371Y-61938889D01*
X128783028Y-61937199D01*
X128800962Y-62271027D01*
X128820310Y-62492815D01*
X128855029Y-62673953D01*
X128910034Y-62830898D01*
X128990241Y-62980109D01*
X129031446Y-63042718D01*
X129141913Y-63177043D01*
X129274390Y-63286451D01*
X129435008Y-63373203D01*
X129629900Y-63439557D01*
X129865197Y-63487773D01*
X130147032Y-63520109D01*
X130365085Y-63534021D01*
X130519149Y-63543066D01*
X130655256Y-63554115D01*
X130761502Y-63565974D01*
X130825986Y-63577449D01*
X130836800Y-63581318D01*
X130870572Y-63613619D01*
X130883734Y-63668688D01*
X130875470Y-63753794D01*
X130844967Y-63876206D01*
X130791409Y-64043194D01*
X130781937Y-64070799D01*
X130704864Y-64338893D01*
X130663681Y-64588697D01*
X130659403Y-64811198D01*
X130681991Y-64958632D01*
X130743273Y-65123157D01*
X130845670Y-65284374D01*
X130994208Y-65448896D01*
X131176494Y-65609313D01*
X131346099Y-65748347D01*
X131474174Y-65857649D01*
X131565718Y-65942213D01*
X131625726Y-66007034D01*
X131659196Y-66057105D01*
X131671126Y-66097420D01*
X131671371Y-66103860D01*
X131646005Y-66167615D01*
X131570687Y-66257372D01*
X131502224Y-66322879D01*
X131381944Y-66449208D01*
X131277529Y-66599528D01*
X131182873Y-66784444D01*
X131091867Y-67014557D01*
X131073404Y-67067410D01*
X130996528Y-67315350D01*
X130950912Y-67522158D01*
X130935359Y-67694841D01*
X130944833Y-67819733D01*
X130999079Y-68044739D01*
X131087433Y-68293567D01*
X131202950Y-68548988D01*
X131335113Y-68787942D01*
X131403524Y-68908910D01*
X131436357Y-69000577D01*
X131429784Y-69073145D01*
X131379975Y-69136812D01*
X131283099Y-69201778D01*
X131154568Y-69268769D01*
X130901144Y-69422212D01*
X130659119Y-69622478D01*
X130439535Y-69858333D01*
X130253436Y-70118543D01*
X130166146Y-70274304D01*
X130080104Y-70461083D01*
X130014584Y-70644541D01*
X129966743Y-70837860D01*
X129933738Y-71054219D01*
X129912727Y-71306801D01*
X129904469Y-71487599D01*
X129886114Y-72010113D01*
X129803262Y-72019590D01*
X129705186Y-72003516D01*
X129658119Y-71972418D01*
X129512722Y-71878124D01*
X129333140Y-71823663D01*
X129126644Y-71808223D01*
X128900506Y-71830991D01*
X128662000Y-71891156D01*
X128418395Y-71987907D01*
X128176966Y-72120432D01*
X128144400Y-72141370D01*
X128006539Y-72247045D01*
X127873694Y-72382464D01*
X127740035Y-72554840D01*
X127599730Y-72771389D01*
X127508198Y-72928599D01*
X127402842Y-73113447D01*
X127319420Y-73253279D01*
X127252793Y-73354437D01*
X127197822Y-73423263D01*
X127149368Y-73466097D01*
X127102289Y-73489283D01*
X127051448Y-73499161D01*
X127045356Y-73499712D01*
X126992007Y-73501127D01*
X126947118Y-73490075D01*
X126899098Y-73458918D01*
X126836354Y-73400018D01*
X126747294Y-73305736D01*
X126741552Y-73299535D01*
X126584749Y-73148579D01*
X126423177Y-73035265D01*
X126239870Y-72950040D01*
X126017860Y-72883353D01*
X125990704Y-72876822D01*
X125869428Y-72851396D01*
X125770028Y-72841001D01*
X125666035Y-72844709D01*
X125535711Y-72860911D01*
X125351616Y-72892702D01*
X125177544Y-72935086D01*
X125004457Y-72991904D01*
X124823322Y-73067001D01*
X124625102Y-73164220D01*
X124400763Y-73287405D01*
X124141269Y-73440399D01*
X124065885Y-73486171D01*
X123917723Y-73575177D01*
X123807570Y-73637058D01*
X123724882Y-73676515D01*
X123659113Y-73698252D01*
X123599720Y-73706972D01*
X123568697Y-73707922D01*
X123472120Y-73699154D01*
X123408913Y-73675339D01*
X123400757Y-73667788D01*
X123377060Y-73617308D01*
X123352956Y-73532113D01*
X123340866Y-73471845D01*
X123313662Y-73318061D01*
X123289225Y-73203873D01*
X123262248Y-73111383D01*
X123227423Y-73022695D01*
X123179443Y-72919913D01*
X123173698Y-72908131D01*
X123069197Y-72723963D01*
X122942046Y-72546277D01*
X122803497Y-72388365D01*
X122664802Y-72263518D01*
X122579451Y-72206140D01*
X122300918Y-72080313D01*
X121989497Y-71996375D01*
X121654111Y-71955931D01*
X121303679Y-71960587D01*
X121244199Y-71965884D01*
X121090223Y-71979354D01*
X120984726Y-71983513D01*
X120918875Y-71978318D01*
X120884304Y-71964119D01*
X120848233Y-71898332D01*
X120852493Y-71800890D01*
X120895649Y-71680467D01*
X120946057Y-71590544D01*
X121023304Y-71434031D01*
X121047611Y-71281994D01*
X121020753Y-71119497D01*
X121007001Y-71077591D01*
X120878624Y-70776724D01*
X120717753Y-70512387D01*
X120519212Y-70279182D01*
X120277829Y-70071707D01*
X119988427Y-69884565D01*
X119740628Y-69756145D01*
X119597666Y-69686080D01*
X119499860Y-69630906D01*
X119438840Y-69583029D01*
X119406237Y-69534856D01*
X119393681Y-69478793D01*
X119392285Y-69440112D01*
X119397835Y-69376926D01*
X119421226Y-69324187D01*
X119472567Y-69266160D01*
X119546286Y-69200456D01*
X119697942Y-69037871D01*
X119811248Y-68847672D01*
X119882864Y-68641207D01*
X119909447Y-68429829D01*
X119887654Y-68224888D01*
X119860047Y-68134799D01*
X119787204Y-67986633D01*
X119675951Y-67816395D01*
X119535313Y-67635487D01*
X119374315Y-67455311D01*
X119201981Y-67287270D01*
X119159263Y-67249427D01*
X119016657Y-67123590D01*
X118913818Y-67026946D01*
X118844913Y-66952756D01*
X118804106Y-66894284D01*
X118790527Y-66858040D01*
X119102000Y-66858040D01*
X119122905Y-66887761D01*
X119175134Y-66935713D01*
X119196343Y-66952678D01*
X119338622Y-67074337D01*
X119497106Y-67228926D01*
X119656586Y-67400551D01*
X119801849Y-67573321D01*
X119849592Y-67635213D01*
X119962739Y-67797240D01*
X120040688Y-67941342D01*
X120088576Y-68084702D01*
X120111541Y-68244504D01*
X120114721Y-68437934D01*
X120112238Y-68513700D01*
X120104234Y-68662474D01*
X120092236Y-68770866D01*
X120072648Y-68856550D01*
X120041876Y-68937202D01*
X120014373Y-68994901D01*
X119944064Y-69112752D01*
X119853580Y-69234832D01*
X119792105Y-69303905D01*
X119654895Y-69442496D01*
X119792105Y-69506147D01*
X120163066Y-69703255D01*
X120482151Y-69926354D01*
X120749426Y-70175507D01*
X120964960Y-70450774D01*
X121094782Y-70678667D01*
X121156807Y-70808558D01*
X121197610Y-70906179D01*
X121222225Y-70991037D01*
X121235689Y-71082642D01*
X121243036Y-71200502D01*
X121245516Y-71262694D01*
X121249006Y-71408596D01*
X121245682Y-71509321D01*
X121234325Y-71577476D01*
X121213718Y-71625672D01*
X121209866Y-71631787D01*
X121176058Y-71690433D01*
X121163014Y-71726063D01*
X121189829Y-71735068D01*
X121261659Y-71740064D01*
X121365559Y-71740420D01*
X121423316Y-71738746D01*
X121757726Y-71744090D01*
X122078724Y-71784775D01*
X122375367Y-71858465D01*
X122636708Y-71962823D01*
X122741621Y-72020218D01*
X122873837Y-72119402D01*
X123015882Y-72258517D01*
X123155878Y-72423649D01*
X123281948Y-72600883D01*
X123375460Y-72762743D01*
X123412532Y-72851948D01*
X123454707Y-72977304D01*
X123496874Y-73120447D01*
X123533920Y-73263014D01*
X123560733Y-73386642D01*
X123572018Y-73468799D01*
X123581927Y-73475337D01*
X123614087Y-73464759D01*
X123674363Y-73433928D01*
X123768621Y-73379706D01*
X123902727Y-73298957D01*
X123993314Y-73243504D01*
X124269202Y-73078552D01*
X124509416Y-72946239D01*
X124723670Y-72843003D01*
X124921683Y-72765286D01*
X125113169Y-72709527D01*
X125307845Y-72672166D01*
X125515427Y-72649643D01*
X125633637Y-72642523D01*
X125794296Y-72636934D01*
X125916875Y-72638769D01*
X126021067Y-72649690D01*
X126126562Y-72671360D01*
X126198820Y-72690252D01*
X126418311Y-72762083D01*
X126596752Y-72849241D01*
X126750869Y-72961359D01*
X126867918Y-73075525D01*
X126942842Y-73154488D01*
X127002380Y-73213585D01*
X127036050Y-73242515D01*
X127039192Y-73243827D01*
X127060162Y-73220348D01*
X127096042Y-73160666D01*
X127117314Y-73120456D01*
X127216712Y-72936418D01*
X127331376Y-72743021D01*
X127452308Y-72554074D01*
X127570511Y-72383388D01*
X127676989Y-72244773D01*
X127720670Y-72194361D01*
X127937976Y-71995770D01*
X128194151Y-71827240D01*
X128473534Y-71698898D01*
X128503075Y-71688341D01*
X128697750Y-71636719D01*
X128916832Y-71605082D01*
X129143346Y-71593808D01*
X129360320Y-71603271D01*
X129550780Y-71633846D01*
X129646693Y-71663027D01*
X129668918Y-71666934D01*
X129683529Y-71652097D01*
X129692098Y-71609248D01*
X129696197Y-71529119D01*
X129697397Y-71402444D01*
X129697428Y-71363878D01*
X129718216Y-70975045D01*
X129781705Y-70621111D01*
X129889584Y-70295884D01*
X130043544Y-69993168D01*
X130092452Y-69915678D01*
X130157172Y-69828386D01*
X130251361Y-69715458D01*
X130362494Y-69591344D01*
X130478045Y-69470494D01*
X130480543Y-69467979D01*
X130622627Y-69330310D01*
X130741506Y-69228176D01*
X130849943Y-69151536D01*
X130960171Y-69090608D01*
X131057669Y-69042734D01*
X131133008Y-69005460D01*
X131172679Y-68985479D01*
X131175288Y-68984062D01*
X131168171Y-68960195D01*
X131142199Y-68926005D01*
X131095269Y-68857905D01*
X131035224Y-68749492D01*
X130968778Y-68615021D01*
X130902645Y-68468744D01*
X130843539Y-68324915D01*
X130798174Y-68197787D01*
X130796168Y-68191424D01*
X130743939Y-67949604D01*
X130725934Y-67681613D01*
X130742133Y-67408162D01*
X130792515Y-67149963D01*
X130797229Y-67133313D01*
X130866147Y-66928442D01*
X130953103Y-66720453D01*
X131050614Y-66524419D01*
X131151197Y-66355407D01*
X131245510Y-66230547D01*
X131375536Y-66085926D01*
X131167854Y-65922405D01*
X130968122Y-65755943D01*
X130797232Y-65594884D01*
X130661872Y-65446146D01*
X130568728Y-65316645D01*
X130550943Y-65284418D01*
X130488170Y-65110893D01*
X130451774Y-64899120D01*
X130441736Y-64662562D01*
X130458039Y-64414681D01*
X130500666Y-64168940D01*
X130552635Y-63986070D01*
X130586339Y-63884092D01*
X130609932Y-63806192D01*
X130619340Y-63766035D01*
X130619012Y-63763507D01*
X130589062Y-63759582D01*
X130511540Y-63753647D01*
X130396872Y-63746393D01*
X130255479Y-63738509D01*
X130190904Y-63735189D01*
X129887070Y-63712318D01*
X129632367Y-63674980D01*
X129419031Y-63620277D01*
X129239299Y-63545312D01*
X129085410Y-63447186D01*
X128949599Y-63323003D01*
X128883584Y-63247216D01*
X128762511Y-63077093D01*
X128679430Y-62904536D01*
X128628164Y-62712452D01*
X128602536Y-62483745D01*
X128601598Y-62466970D01*
X128592767Y-62346805D01*
X128581126Y-62251971D01*
X128568468Y-62194904D01*
X128560790Y-62183942D01*
X128525065Y-62193888D01*
X128446857Y-62220970D01*
X128337702Y-62261053D01*
X128209137Y-62310000D01*
X128209071Y-62310026D01*
X127939385Y-62408425D01*
X127705919Y-62479211D01*
X127495288Y-62524941D01*
X127294111Y-62548173D01*
X127089004Y-62551464D01*
X126974138Y-62545998D01*
X126629612Y-62512192D01*
X126335385Y-62458218D01*
X126086514Y-62381764D01*
X125878055Y-62280522D01*
X125705065Y-62152180D01*
X125562601Y-61994429D01*
X125464535Y-61840489D01*
X125379937Y-61685722D01*
X125267197Y-61823746D01*
X125044224Y-62056402D01*
X124772485Y-62270569D01*
X124459922Y-62460203D01*
X124370685Y-62505860D01*
X124022343Y-62677542D01*
X123644971Y-62695384D01*
X123326977Y-62696941D01*
X123029388Y-62671927D01*
X122764503Y-62621786D01*
X122608044Y-62573596D01*
X122489508Y-62531020D01*
X122414885Y-62510696D01*
X122374046Y-62513657D01*
X122356864Y-62540936D01*
X122353211Y-62593565D01*
X122353200Y-62599574D01*
X122329847Y-62822692D01*
X122264142Y-63062278D01*
X122162620Y-63303481D01*
X122031811Y-63531447D01*
X121878248Y-63731323D01*
X121835420Y-63776837D01*
X121627021Y-63955763D01*
X121396082Y-64089592D01*
X121135223Y-64181507D01*
X120837068Y-64234690D01*
X120756628Y-64242245D01*
X120538914Y-64259485D01*
X120553428Y-64419142D01*
X120565623Y-64616912D01*
X120568320Y-64823047D01*
X120562126Y-65022611D01*
X120547650Y-65200667D01*
X120525498Y-65342277D01*
X120514051Y-65387292D01*
X120420169Y-65645889D01*
X120300866Y-65889818D01*
X120164575Y-66103562D01*
X120049869Y-66241466D01*
X119917385Y-66363265D01*
X119752833Y-66490277D01*
X119573930Y-66610609D01*
X119398393Y-66712368D01*
X119243940Y-66783659D01*
X119239885Y-66785178D01*
X119161276Y-66818267D01*
X119111347Y-66846756D01*
X119102000Y-66858040D01*
X118790527Y-66858040D01*
X118785563Y-66844792D01*
X118782685Y-66814583D01*
G37*
G36*
X134742038Y-58939586D02*
G01*
X134783052Y-58955782D01*
X134790809Y-58994149D01*
X134790850Y-59075600D01*
X134784542Y-59185878D01*
X134773250Y-59310726D01*
X134758342Y-59435888D01*
X134741186Y-59547104D01*
X134723146Y-59630118D01*
X134716384Y-59651199D01*
X134674928Y-59698839D01*
X134612770Y-59717334D01*
X134553876Y-59704138D01*
X134526076Y-59671425D01*
X134522546Y-59625949D01*
X134525947Y-59536218D01*
X134535479Y-59415515D01*
X134549184Y-59286797D01*
X134589594Y-58947256D01*
X134672533Y-58937729D01*
X134742038Y-58939586D01*
G37*
G36*
X186065172Y-118173150D02*
G01*
X186082070Y-118179529D01*
X186093237Y-118188568D01*
X186117038Y-118210338D01*
X186152038Y-118243449D01*
X186196807Y-118286515D01*
X186249909Y-118338146D01*
X186309913Y-118396956D01*
X186375386Y-118461555D01*
X186444894Y-118530556D01*
X186460073Y-118545679D01*
X186816311Y-118900820D01*
X187172549Y-118545679D01*
X187242731Y-118475920D01*
X187309183Y-118410267D01*
X187370471Y-118350109D01*
X187425162Y-118296834D01*
X187471825Y-118251829D01*
X187509024Y-118216482D01*
X187535329Y-118192182D01*
X187549305Y-118180317D01*
X187550552Y-118179529D01*
X187589175Y-118169179D01*
X187634439Y-118170272D01*
X187677212Y-118182064D01*
X187693984Y-118191177D01*
X187737728Y-118230852D01*
X187764365Y-118278048D01*
X187772957Y-118330115D01*
X187762566Y-118384404D01*
X187762493Y-118384603D01*
X187753548Y-118397010D01*
X187731833Y-118421982D01*
X187698738Y-118458060D01*
X187655654Y-118503786D01*
X187603969Y-118557700D01*
X187545074Y-118618343D01*
X187480359Y-118684257D01*
X187411215Y-118753982D01*
X187396342Y-118768892D01*
X187040620Y-119125130D01*
X187395762Y-119481367D01*
X187465521Y-119551550D01*
X187531173Y-119618001D01*
X187591331Y-119679289D01*
X187644607Y-119733981D01*
X187689612Y-119780643D01*
X187724958Y-119817843D01*
X187749258Y-119844147D01*
X187761124Y-119858124D01*
X187761912Y-119859371D01*
X187773854Y-119903456D01*
X187769680Y-119950540D01*
X187751742Y-119996121D01*
X187722388Y-120035696D01*
X187683969Y-120064765D01*
X187648069Y-120077470D01*
X187629339Y-120080867D01*
X187612582Y-120082788D01*
X187596451Y-120082182D01*
X187579598Y-120077995D01*
X187560675Y-120069177D01*
X187538335Y-120054675D01*
X187511231Y-120033435D01*
X187478015Y-120004407D01*
X187437339Y-119966537D01*
X187387857Y-119918773D01*
X187328219Y-119860063D01*
X187257080Y-119789355D01*
X187177465Y-119709960D01*
X186816179Y-119349571D01*
X186460007Y-119705227D01*
X186389677Y-119775114D01*
X186322852Y-119840863D01*
X186260994Y-119901081D01*
X186205561Y-119954380D01*
X186158012Y-119999368D01*
X186119806Y-120034656D01*
X186092402Y-120058854D01*
X186077259Y-120070570D01*
X186075784Y-120071311D01*
X186028871Y-120080419D01*
X185979755Y-120076691D01*
X185959353Y-120070545D01*
X185920754Y-120046758D01*
X185886841Y-120010979D01*
X185873701Y-119990062D01*
X185863178Y-119955788D01*
X185860167Y-119914258D01*
X185864900Y-119875512D01*
X185870710Y-119859371D01*
X185879749Y-119848204D01*
X185901519Y-119824403D01*
X185934631Y-119789402D01*
X185977696Y-119744634D01*
X186029328Y-119691531D01*
X186088137Y-119631527D01*
X186152737Y-119566055D01*
X186221738Y-119496546D01*
X186236860Y-119481367D01*
X186592002Y-119125130D01*
X186236280Y-118768892D01*
X186166386Y-118698555D01*
X186100631Y-118631724D01*
X186040405Y-118569859D01*
X185987100Y-118514419D01*
X185942104Y-118466863D01*
X185906807Y-118428649D01*
X185882601Y-118401236D01*
X185870874Y-118386084D01*
X185870129Y-118384603D01*
X185859668Y-118330310D01*
X185868193Y-118278230D01*
X185894765Y-118231012D01*
X185938448Y-118191305D01*
X185938638Y-118191177D01*
X185977041Y-118174572D01*
X186022263Y-118168316D01*
X186065172Y-118173150D01*
G37*
G36*
X183647800Y-118984459D02*
G01*
X183668869Y-118926690D01*
X183701453Y-118868841D01*
X183707693Y-118859393D01*
X183720247Y-118844167D01*
X183745739Y-118816202D01*
X183782918Y-118776754D01*
X183830535Y-118727077D01*
X183887337Y-118668427D01*
X183952076Y-118602060D01*
X184023499Y-118529231D01*
X184100357Y-118451195D01*
X184181398Y-118369209D01*
X184265373Y-118284527D01*
X184351030Y-118198405D01*
X184437119Y-118112099D01*
X184522389Y-118026864D01*
X184605589Y-117943956D01*
X184685470Y-117864629D01*
X184760779Y-117790141D01*
X184830267Y-117721745D01*
X184892683Y-117660698D01*
X184946777Y-117608254D01*
X184991296Y-117565671D01*
X185024992Y-117534202D01*
X185046613Y-117515104D01*
X185047578Y-117514315D01*
X185124666Y-117459427D01*
X185215545Y-117407487D01*
X185314078Y-117361655D01*
X185414126Y-117325094D01*
X185416272Y-117324426D01*
X185505954Y-117296609D01*
X186901011Y-117293512D01*
X187110920Y-117293092D01*
X187301609Y-117292811D01*
X187473790Y-117292672D01*
X187628172Y-117292680D01*
X187765465Y-117292840D01*
X187886380Y-117293154D01*
X187991625Y-117293629D01*
X188081911Y-117294267D01*
X188157949Y-117295073D01*
X188220447Y-117296051D01*
X188270117Y-117297205D01*
X188307668Y-117298540D01*
X188333810Y-117300060D01*
X188349253Y-117301768D01*
X188350874Y-117302079D01*
X188425777Y-117324250D01*
X188492543Y-117358397D01*
X188556467Y-117407524D01*
X188585718Y-117435322D01*
X188637458Y-117492617D01*
X188674875Y-117548246D01*
X188701833Y-117608692D01*
X188715384Y-117652905D01*
X188717484Y-117670810D01*
X188719431Y-117707249D01*
X188721226Y-117760826D01*
X188722869Y-117830147D01*
X188724359Y-117913815D01*
X188725697Y-118010437D01*
X188726883Y-118118617D01*
X188727916Y-118236960D01*
X188728797Y-118364071D01*
X188729526Y-118498554D01*
X188730102Y-118639014D01*
X188730527Y-118784057D01*
X188730798Y-118932288D01*
X188730918Y-119082310D01*
X188730885Y-119232729D01*
X188730700Y-119382150D01*
X188730362Y-119529178D01*
X188729873Y-119672418D01*
X188729231Y-119810474D01*
X188728436Y-119941951D01*
X188727489Y-120065454D01*
X188726390Y-120179588D01*
X188725139Y-120282959D01*
X188723735Y-120374170D01*
X188722179Y-120451826D01*
X188720471Y-120514533D01*
X188718610Y-120560896D01*
X188716598Y-120589519D01*
X188715384Y-120597354D01*
X188693066Y-120664350D01*
X188662753Y-120722335D01*
X188620574Y-120777799D01*
X188585718Y-120814819D01*
X188528472Y-120866582D01*
X188472844Y-120904012D01*
X188412342Y-120930979D01*
X188368253Y-120944485D01*
X188350253Y-120946604D01*
X188313736Y-120948558D01*
X188260116Y-120950346D01*
X188190805Y-120951971D01*
X188107214Y-120953432D01*
X188010758Y-120954730D01*
X187902847Y-120955866D01*
X187784895Y-120956840D01*
X187658314Y-120957653D01*
X187524516Y-120958306D01*
X187384915Y-120958800D01*
X187240921Y-120959134D01*
X187093949Y-120959311D01*
X186945410Y-120959329D01*
X186796716Y-120959191D01*
X186649281Y-120958896D01*
X186504517Y-120958446D01*
X186363835Y-120957841D01*
X186228650Y-120957081D01*
X186100372Y-120956168D01*
X185980415Y-120955101D01*
X185870191Y-120953883D01*
X185771112Y-120952512D01*
X185684591Y-120950991D01*
X185612041Y-120949319D01*
X185554873Y-120947497D01*
X185514501Y-120945526D01*
X185492336Y-120943407D01*
X185491007Y-120943151D01*
X185354012Y-120904320D01*
X185223771Y-120848630D01*
X185103813Y-120777681D01*
X185066364Y-120750644D01*
X185047040Y-120734242D01*
X185015322Y-120705158D01*
X184972465Y-120664650D01*
X184919722Y-120613971D01*
X184858348Y-120554376D01*
X184789596Y-120487122D01*
X184714720Y-120413462D01*
X184634975Y-120334652D01*
X184551614Y-120251946D01*
X184465892Y-120166600D01*
X184379062Y-120079869D01*
X184292378Y-119993008D01*
X184207095Y-119907272D01*
X184124466Y-119823916D01*
X184045746Y-119744194D01*
X183972189Y-119669363D01*
X183905047Y-119600676D01*
X183845577Y-119539390D01*
X183795030Y-119486758D01*
X183754663Y-119444037D01*
X183725727Y-119412480D01*
X183709478Y-119393344D01*
X183707691Y-119390867D01*
X183673150Y-119332430D01*
X183650402Y-119275065D01*
X183637665Y-119212429D01*
X183633158Y-119138177D01*
X183633082Y-119125130D01*
X183633147Y-119123652D01*
X183945718Y-119123652D01*
X183946240Y-119136965D01*
X183949994Y-119151687D01*
X183957779Y-119168757D01*
X183970388Y-119189114D01*
X183988620Y-119213696D01*
X184013270Y-119243443D01*
X184045135Y-119279294D01*
X184085011Y-119322188D01*
X184133693Y-119373062D01*
X184191979Y-119432857D01*
X184260664Y-119502512D01*
X184340546Y-119582964D01*
X184432419Y-119675153D01*
X184537081Y-119780018D01*
X184602464Y-119845521D01*
X184696907Y-119939959D01*
X184788245Y-120030923D01*
X184875379Y-120117340D01*
X184957210Y-120198137D01*
X185032639Y-120272240D01*
X185100568Y-120338576D01*
X185159897Y-120396073D01*
X185209529Y-120443655D01*
X185248363Y-120480251D01*
X185275302Y-120504788D01*
X185288850Y-120515932D01*
X185350221Y-120551509D01*
X185422016Y-120584650D01*
X185495024Y-120611437D01*
X185545097Y-120625012D01*
X185557609Y-120626966D01*
X185576908Y-120628734D01*
X185603906Y-120630325D01*
X185639516Y-120631748D01*
X185684652Y-120633012D01*
X185740227Y-120634126D01*
X185807153Y-120635100D01*
X185886344Y-120635942D01*
X185978713Y-120636661D01*
X186085173Y-120637267D01*
X186206637Y-120637769D01*
X186344018Y-120638176D01*
X186498230Y-120638497D01*
X186670184Y-120638741D01*
X186860795Y-120638918D01*
X186941249Y-120638971D01*
X188276898Y-120639763D01*
X188321359Y-120617342D01*
X188359411Y-120591343D01*
X188386046Y-120554706D01*
X188388241Y-120550460D01*
X188410662Y-120505999D01*
X188410662Y-117744260D01*
X188388241Y-117699799D01*
X188362603Y-117662121D01*
X188326542Y-117635616D01*
X188320979Y-117632720D01*
X188276138Y-117610102D01*
X186915958Y-117612807D01*
X186721834Y-117613157D01*
X186546580Y-117613434D01*
X186389135Y-117613690D01*
X186248442Y-117613982D01*
X186123440Y-117614363D01*
X186013071Y-117614888D01*
X185916274Y-117615611D01*
X185831990Y-117616586D01*
X185759160Y-117617869D01*
X185696725Y-117619513D01*
X185643625Y-117621574D01*
X185598801Y-117624104D01*
X185561193Y-117627160D01*
X185529743Y-117630795D01*
X185503390Y-117635064D01*
X185481076Y-117640021D01*
X185461740Y-117645721D01*
X185444324Y-117652218D01*
X185427769Y-117659567D01*
X185411014Y-117667821D01*
X185393000Y-117677036D01*
X185372669Y-117687266D01*
X185361466Y-117692701D01*
X185276766Y-117733155D01*
X184622310Y-118386792D01*
X184509926Y-118499097D01*
X184410862Y-118598246D01*
X184324281Y-118685114D01*
X184249347Y-118760573D01*
X184185224Y-118825496D01*
X184131075Y-118880756D01*
X184086064Y-118927227D01*
X184049355Y-118965781D01*
X184020111Y-118997291D01*
X183997495Y-119022631D01*
X183980672Y-119042674D01*
X183968805Y-119058293D01*
X183961058Y-119070360D01*
X183956594Y-119079749D01*
X183955589Y-119082780D01*
X183951189Y-119097499D01*
X183947633Y-119110810D01*
X183945718Y-119123652D01*
X183633147Y-119123652D01*
X183636465Y-119048491D01*
X183647800Y-118984459D01*
G37*
G36*
X82567369Y-119164432D02*
G01*
X82605729Y-119103969D01*
X82624344Y-119082987D01*
X82661407Y-119043844D01*
X82715322Y-118988129D01*
X82784496Y-118917429D01*
X82867331Y-118833332D01*
X82962234Y-118737427D01*
X83067609Y-118631300D01*
X83181860Y-118516540D01*
X83303392Y-118394735D01*
X83430610Y-118267473D01*
X83561919Y-118136341D01*
X83695724Y-118002928D01*
X83830428Y-117868820D01*
X83964438Y-117735607D01*
X84096157Y-117604876D01*
X84223990Y-117478215D01*
X84346343Y-117357212D01*
X84461619Y-117243454D01*
X84568223Y-117138530D01*
X84664561Y-117044028D01*
X84749037Y-116961534D01*
X84820056Y-116892638D01*
X84876021Y-116838927D01*
X84915339Y-116801989D01*
X84936414Y-116783412D01*
X84938747Y-116781764D01*
X84987151Y-116759318D01*
X85046683Y-116738862D01*
X85079243Y-116730453D01*
X85180208Y-116722725D01*
X85283781Y-116741470D01*
X85384320Y-116785636D01*
X85388580Y-116788143D01*
X85407192Y-116803347D01*
X85444357Y-116837407D01*
X85498464Y-116888712D01*
X85567901Y-116955648D01*
X85651058Y-117036603D01*
X85746324Y-117129964D01*
X85852088Y-117234118D01*
X85966738Y-117347452D01*
X86088663Y-117468355D01*
X86216254Y-117595213D01*
X86347897Y-117726413D01*
X86481984Y-117860343D01*
X86616901Y-117995390D01*
X86751040Y-118129941D01*
X86882787Y-118262383D01*
X87010533Y-118391105D01*
X87132666Y-118514492D01*
X87247576Y-118630933D01*
X87353651Y-118738814D01*
X87449280Y-118836524D01*
X87532852Y-118922448D01*
X87602756Y-118994975D01*
X87657382Y-119052492D01*
X87695117Y-119093386D01*
X87714352Y-119116044D01*
X87715099Y-119117101D01*
X87770967Y-119218458D01*
X87799392Y-119316577D01*
X87800953Y-119409333D01*
X87776235Y-119494601D01*
X87725816Y-119570257D01*
X87650281Y-119634173D01*
X87561041Y-119680011D01*
X87538308Y-119688600D01*
X87515282Y-119695532D01*
X87488612Y-119701024D01*
X87454946Y-119705295D01*
X87410932Y-119708562D01*
X87353217Y-119711042D01*
X87278451Y-119712954D01*
X87183281Y-119714516D01*
X87064355Y-119715945D01*
X86997155Y-119716655D01*
X86512285Y-119721663D01*
X86512285Y-120299099D01*
X86512205Y-120444350D01*
X86511879Y-120563851D01*
X86511181Y-120660584D01*
X86509983Y-120737530D01*
X86508158Y-120797671D01*
X86505579Y-120843991D01*
X86502118Y-120879471D01*
X86497649Y-120907092D01*
X86492043Y-120929838D01*
X86485175Y-120950691D01*
X86484394Y-120952840D01*
X86432132Y-121055624D01*
X86358048Y-121141764D01*
X86265631Y-121207798D01*
X86196338Y-121238667D01*
X86178653Y-121242358D01*
X86146989Y-121245542D01*
X86099740Y-121248245D01*
X86035303Y-121250496D01*
X85952075Y-121252320D01*
X85848452Y-121253743D01*
X85722830Y-121254793D01*
X85573606Y-121255496D01*
X85399175Y-121255879D01*
X85197935Y-121255968D01*
X85154649Y-121255953D01*
X84961121Y-121255830D01*
X84794189Y-121255614D01*
X84651713Y-121255251D01*
X84531558Y-121254685D01*
X84431584Y-121253861D01*
X84349655Y-121252723D01*
X84283632Y-121251216D01*
X84231377Y-121249285D01*
X84190753Y-121246875D01*
X84159622Y-121243930D01*
X84135846Y-121240395D01*
X84117288Y-121236215D01*
X84101809Y-121231334D01*
X84094341Y-121228530D01*
X83994983Y-121175029D01*
X83914470Y-121100062D01*
X83854931Y-121006373D01*
X83811380Y-120915120D01*
X83811380Y-119719624D01*
X83369610Y-119719375D01*
X83221388Y-119718802D01*
X83098590Y-119717036D01*
X82997921Y-119713732D01*
X82916084Y-119708545D01*
X82849782Y-119701130D01*
X82795720Y-119691142D01*
X82750602Y-119678236D01*
X82711131Y-119662067D01*
X82683130Y-119647523D01*
X82605001Y-119590570D01*
X82552400Y-119520959D01*
X82524207Y-119436783D01*
X82518393Y-119366628D01*
X82524047Y-119320306D01*
X82935050Y-119320306D01*
X82935058Y-119320420D01*
X82950471Y-119321233D01*
X82991655Y-119322320D01*
X83055648Y-119323631D01*
X83139491Y-119325114D01*
X83240223Y-119326720D01*
X83354883Y-119328397D01*
X83480511Y-119330097D01*
X83567149Y-119331195D01*
X84192093Y-119338912D01*
X84195815Y-120084656D01*
X84196983Y-120270952D01*
X84198504Y-120429467D01*
X84200400Y-120561149D01*
X84202698Y-120666947D01*
X84205420Y-120747809D01*
X84208592Y-120804686D01*
X84212239Y-120838527D01*
X84215532Y-120849673D01*
X84223296Y-120853653D01*
X84240755Y-120857072D01*
X84269802Y-120859967D01*
X84312329Y-120862379D01*
X84370229Y-120864344D01*
X84445396Y-120865903D01*
X84539721Y-120867093D01*
X84655097Y-120867954D01*
X84793417Y-120868524D01*
X84956573Y-120868841D01*
X85146459Y-120868945D01*
X85158416Y-120868946D01*
X85344924Y-120868907D01*
X85504794Y-120868753D01*
X85640122Y-120868429D01*
X85753004Y-120867878D01*
X85845534Y-120867046D01*
X85919808Y-120865876D01*
X85977921Y-120864313D01*
X86021970Y-120862301D01*
X86054049Y-120859784D01*
X86076254Y-120856707D01*
X86090679Y-120853013D01*
X86099422Y-120848648D01*
X86104390Y-120843804D01*
X86108800Y-120832855D01*
X86112523Y-120811185D01*
X86115612Y-120776701D01*
X86118120Y-120727312D01*
X86120102Y-120660927D01*
X86121609Y-120575454D01*
X86122695Y-120468803D01*
X86123413Y-120338882D01*
X86123817Y-120183600D01*
X86123932Y-120075196D01*
X86124389Y-119331728D01*
X86724191Y-119330719D01*
X86853468Y-119330274D01*
X86974347Y-119329422D01*
X87083687Y-119328218D01*
X87178346Y-119326715D01*
X87255184Y-119324968D01*
X87311058Y-119323030D01*
X87342827Y-119320957D01*
X87348556Y-119319944D01*
X87342705Y-119308495D01*
X87317943Y-119278494D01*
X87275849Y-119231530D01*
X87218003Y-119169189D01*
X87145986Y-119093062D01*
X87061379Y-119004735D01*
X86965761Y-118905798D01*
X86860712Y-118797839D01*
X86747814Y-118682446D01*
X86628647Y-118561207D01*
X86504790Y-118435711D01*
X86377825Y-118307547D01*
X86249332Y-118178302D01*
X86120890Y-118049565D01*
X85994080Y-117922924D01*
X85870483Y-117799967D01*
X85751679Y-117682284D01*
X85639249Y-117571461D01*
X85534772Y-117469089D01*
X85439829Y-117376754D01*
X85356000Y-117296045D01*
X85284866Y-117228551D01*
X85228007Y-117175860D01*
X85187003Y-117139561D01*
X85163435Y-117121241D01*
X85158985Y-117119285D01*
X85148010Y-117124676D01*
X85126320Y-117141376D01*
X85093101Y-117170175D01*
X85047541Y-117211863D01*
X84988824Y-117267230D01*
X84916138Y-117337065D01*
X84828668Y-117422160D01*
X84725600Y-117523304D01*
X84606122Y-117641287D01*
X84469418Y-117776900D01*
X84314676Y-117930931D01*
X84141081Y-118104172D01*
X84026878Y-118218323D01*
X83879403Y-118365900D01*
X83737871Y-118507709D01*
X83603581Y-118642441D01*
X83477831Y-118768785D01*
X83361919Y-118885430D01*
X83257143Y-118991066D01*
X83164801Y-119084382D01*
X83086193Y-119164069D01*
X83022615Y-119228815D01*
X82975366Y-119277310D01*
X82945745Y-119308244D01*
X82935050Y-119320306D01*
X82524047Y-119320306D01*
X82531138Y-119262206D01*
X82567369Y-119164432D01*
G37*
G36*
X187968963Y-129441787D02*
G01*
X188242363Y-129447823D01*
X188291483Y-129509275D01*
X188340602Y-129570726D01*
X188340628Y-131055807D01*
X188340600Y-131338313D01*
X188340459Y-131582754D01*
X188340128Y-131792030D01*
X188339534Y-131969044D01*
X188338601Y-132116697D01*
X188337256Y-132237891D01*
X188335422Y-132335529D01*
X188333027Y-132412511D01*
X188329994Y-132471739D01*
X188326250Y-132516116D01*
X188321720Y-132548542D01*
X188316329Y-132571921D01*
X188310002Y-132589153D01*
X188302665Y-132603140D01*
X188300740Y-132606347D01*
X188283502Y-132635250D01*
X188267640Y-132659852D01*
X188249894Y-132680527D01*
X188227006Y-132697650D01*
X188195719Y-132711596D01*
X188152774Y-132722740D01*
X188094913Y-132731456D01*
X188018878Y-132738120D01*
X187921411Y-132743105D01*
X187799253Y-132746787D01*
X187649146Y-132749542D01*
X187467832Y-132751742D01*
X187252053Y-132753764D01*
X187000036Y-132755968D01*
X185852016Y-132766210D01*
X185841774Y-133085774D01*
X185835679Y-133228561D01*
X185826611Y-133334514D01*
X185812760Y-133407746D01*
X185792318Y-133452375D01*
X185763476Y-133472516D01*
X185724426Y-133472285D01*
X185678308Y-133457766D01*
X185655505Y-133443108D01*
X185603831Y-133406577D01*
X185527113Y-133350981D01*
X185429178Y-133279128D01*
X185313853Y-133193827D01*
X185184965Y-133097886D01*
X185046341Y-132994114D01*
X185038645Y-132988336D01*
X184872874Y-132863367D01*
X184737283Y-132759905D01*
X184628855Y-132675452D01*
X184544572Y-132607512D01*
X184481418Y-132553585D01*
X184436374Y-132511173D01*
X184406424Y-132477779D01*
X184388549Y-132450906D01*
X184387877Y-132449608D01*
X184352991Y-132353103D01*
X184351850Y-132269692D01*
X184382298Y-132206954D01*
X184408788Y-132182986D01*
X184463345Y-132138688D01*
X184541563Y-132077348D01*
X184639032Y-132002255D01*
X184751346Y-131916698D01*
X184874094Y-131823966D01*
X185002871Y-131727349D01*
X185133266Y-131630134D01*
X185260873Y-131535612D01*
X185381284Y-131447070D01*
X185490090Y-131367798D01*
X185582882Y-131301085D01*
X185655254Y-131250220D01*
X185702797Y-131218492D01*
X185719501Y-131209236D01*
X185756657Y-131202153D01*
X185784959Y-131210566D01*
X185805820Y-131238926D01*
X185820655Y-131291686D01*
X185830877Y-131373295D01*
X185837900Y-131488206D01*
X185841774Y-131594169D01*
X185852016Y-131926371D01*
X186548467Y-131931996D01*
X186756268Y-131933284D01*
X186927287Y-131933217D01*
X187065700Y-131931417D01*
X187175681Y-131927503D01*
X187261407Y-131921097D01*
X187327051Y-131911818D01*
X187376790Y-131899287D01*
X187414797Y-131883125D01*
X187445248Y-131862951D01*
X187461372Y-131849003D01*
X187491873Y-131798691D01*
X187501558Y-131746340D01*
X187501695Y-131713190D01*
X187501863Y-131643314D01*
X187502055Y-131540956D01*
X187502265Y-131410355D01*
X187502486Y-131255756D01*
X187502712Y-131081400D01*
X187502937Y-130891528D01*
X187503154Y-130690384D01*
X187503178Y-130666613D01*
X187503802Y-130406309D01*
X187505133Y-130185150D01*
X187507211Y-130001317D01*
X187510080Y-129852995D01*
X187513782Y-129738364D01*
X187518358Y-129655608D01*
X187523849Y-129602909D01*
X187528192Y-129583129D01*
X187553717Y-129529085D01*
X187591360Y-129489713D01*
X187646885Y-129463167D01*
X187726051Y-129447598D01*
X187834619Y-129441159D01*
X187968963Y-129441787D01*
G37*
%TD*%
M02*
